<?xml version="1.0" encoding="UTF-8" standalone="no"?>
<!DOCTYPE svg PUBLIC "-//W3C//DTD SVG 1.1//EN" "http://www.w3.org/Graphics/SVG/1.1/DTD/svg11.dtd">
<svg version="1.1" xmlns="http://www.w3.org/2000/svg" xmlns:xlink="http://www.w3.org/1999/xlink" preserveAspectRatio="xMidYMid meet" viewBox="0 0 640 640" width="640" height="640"><defs><path d="M0 0L512 0L512 512L0 512L0 0Z" id="b6rN2pSXag"></path><path d="M171.28 252.46C171.28 252.46 172.66 251.53 173.17 251.41C173.68 251.29 175.46 250.73 175.46 250.73C175.46 250.73 176.61 250.14 177.21 250.14C177.86 250.14 179.1 250.82 179.51 251.41C179.88 252 181.9 253.02 181.9 253.02C181.9 253.02 183.28 253.49 183.55 253.02C183.82 252.56 184.43 252.22 185.07 252.22C185.71 252.22 185.81 251.63 185.81 251.16C185.81 250.7 186.08 250.11 186.55 249.55C187.06 248.96 188.07 248.61 188.07 248.61C188.07 248.61 189.45 248.02 189.59 247.22C189.72 246.41 191.1 245.82 191.88 245.7C192.62 245.57 191.88 245.23 193.9 245.45C195.92 245.7 196.19 244.98 196.29 244.39C196.43 243.8 196.29 243.21 197.58 243.34C198.86 243.46 199.46 243.46 199.46 242.75C199.46 242.06 200.61 241.69 198.59 241.13C196.56 240.54 196.7 241.01 196.56 240.08C196.43 239.15 196.56 239.27 195.18 239.15C193.8 239.02 194.54 238.34 194.44 237.62C194.31 236.94 193.93 236.57 193.7 236.1C193.43 235.64 192.69 235.64 192.69 234.95C192.69 234.27 192.55 233.9 191.81 233.9C191.07 233.9 190.8 233.9 190.8 233.21C190.8 232.53 190.93 231.94 191.68 231.94C192.42 231.94 192.82 231.35 192.69 230.67C192.55 229.99 192.55 228.46 192.55 228.46C192.65 228.35 193.46 227.4 193.56 227.28C193.56 227.28 196.6 224.83 196.87 224.37C197.14 223.9 198.15 223.56 198.62 224.49C199.13 225.42 199.36 225.67 199.77 226.1C200.14 226.57 201.28 226.23 201.52 225.76C201.79 225.3 201.89 223.59 202.56 222.66C203.24 221.76 203.71 221.29 203.88 220.55C204.05 219.8 204.39 219.18 205.19 219.18C206 219.18 206.51 218.13 206.51 217.5C206.51 216.88 206.85 216.29 207.82 216.14C208.8 215.98 209.31 215.39 209.64 216.29C209.98 217.19 210.32 217.19 210.96 217.5C211.63 217.81 212.61 218.25 213.08 217.81C213.59 217.35 213.82 216.6 214.57 217.07C215.27 217.54 215.78 217.07 215.95 216.17C216.12 215.27 216.28 214.06 216.28 214.06C216.28 214.06 216.45 213.44 217.6 213.44C218.75 213.44 217.94 212.69 218.58 212.23C219.25 211.76 219.25 211.33 220.06 211.6C220.87 211.92 222.18 211.23 221.54 210.49C220.87 209.74 219.42 208.53 220.23 207.6C221.04 206.7 221.37 205.18 220.57 205.02C219.76 204.87 218.58 205.18 218.44 204.28C218.27 203.38 217.94 202.76 218.95 202.6C219.93 202.45 221.58 202.45 222.08 201.98C222.59 201.51 224.21 201.23 224.21 199.87C224.21 198.5 224.71 198.35 224.88 197.6C225.05 196.86 225.05 195.27 224.38 194.53C223.7 193.78 222.72 192.7 222.55 192.26C222.39 191.8 221.75 191.05 220.73 190.74C219.76 190.43 218.91 190.27 218.91 189.53C218.91 188.78 219.59 189.68 219.59 187.7C219.59 185.74 218.27 185.43 218.27 185.43C218.07 185.31 216.48 184.34 216.28 184.22C216.28 184.22 212.78 183.29 211.83 183.29C210.89 183.29 209.81 182.3 210.89 181.67C211.97 181.05 212.24 179.94 211.83 179.07C211.43 178.2 211.16 177.58 209.68 177.2C208.19 176.83 207.79 176.46 208.46 175.59C209.14 174.72 209.27 174.1 210.08 174.72C210.89 175.34 212.24 175.59 213.32 175.09C214.4 174.6 214.8 174.22 215.34 174.72C215.88 175.22 216.55 175.71 217.36 174.97C218.17 174.22 219.66 174.1 220.33 174.47C221 174.84 222.62 174.72 223.16 174.47C223.7 174.22 224.78 173.35 224.78 172.86C224.78 172.36 225.45 171.49 226.13 171.12C226.8 170.75 227.61 169.5 228.29 169.5C228.96 169.5 229.23 168.76 229.23 168.26C229.23 167.76 229.77 166.77 229.9 166.4C230.04 166.03 231.39 165.5 232.33 166.27C233.27 167.02 234.49 167.27 234.49 167.27C234.49 167.27 235.84 167.52 236.51 167.27C237.18 167.02 238.13 166.77 239.07 167.39C240.02 168.01 241.36 168.01 241.36 168.01C241.36 168.01 241.63 167.02 241.63 166.52C241.63 166.03 241.9 165.16 241.36 164.78C240.83 164.41 240.15 163.91 241.23 163.17C242.31 162.42 242.31 162.55 243.39 162.55C244.47 162.55 245.14 162.67 245.95 162.67C246.76 162.67 248.11 163.42 248.11 164.16C248.11 164.91 248.65 165.4 249.32 165.78C249.99 166.15 250.8 166.52 250.53 167.14C250.26 167.76 250.26 168.26 251.07 168.14C251.88 168.01 252.15 168.51 252.15 169.13C252.15 169.75 252.42 170.12 253.23 170.37C254.04 170.62 254.44 171.12 254.44 171.74C254.44 172.36 254.31 172.73 254.58 173.35C254.85 173.97 255.66 174.97 255.66 174.97C255.66 174.97 257.14 176.71 255.25 175.84C253.37 174.97 252.96 174.6 252.29 174.72C251.61 174.84 251.21 175.22 251.21 175.22C251.21 175.22 250.26 175.46 249.59 175.46C248.92 175.46 248.24 176.83 249.32 177.08C250.4 177.33 250.8 177.58 250.8 178.45C250.8 179.31 250.4 179.07 249.86 179.69C249.32 180.31 248.92 179.94 247.97 179.94C247.03 179.94 246.76 180.68 246.76 181.43C246.76 182.17 247.16 182.05 247.57 182.67C247.97 183.29 248.65 183.41 249.32 182.79C249.99 182.17 250.53 181.8 250.94 182.92C251.34 184.03 251.88 184.03 252.69 184.03C253.5 184.03 253.77 184.03 254.44 183.66C255.12 183.29 255.93 183.66 256.06 184.65C256.2 185.65 256.87 185.77 257.55 186.15C258.22 186.52 258.62 186.77 258.76 187.39C258.89 188.01 259.3 188.26 259.97 187.88C260.65 187.51 261.73 187.26 262.13 187.76C262.53 188.26 263.21 189.25 263.21 189.25C263.22 189.33 263.26 189.75 263.34 190.49C264.88 191.01 265.73 191.3 265.91 191.36C265.91 191.36 266.18 191.98 266.18 192.48C266.18 192.98 266.58 193.22 267.25 193.1C267.93 192.98 269.14 193.1 269.14 193.1C269.14 193.1 270.09 192.73 270.09 191.98C270.09 191.24 270.49 190.99 271.16 190.99C271.84 190.99 273.32 191.49 273.73 190.74C274.13 190 275.34 189.75 276.29 190.12C277.23 190.49 279.66 191.49 279.66 191.49C279.66 191.49 279.39 191.61 280.2 192.85C281.01 194.09 282.49 194.09 282.49 194.09C282.49 194.09 282.63 195.21 282.9 195.71C283.17 196.2 284.38 196.45 285.05 195.96C285.73 195.46 286.67 194.84 287.48 194.84C288.29 194.84 288.83 194.84 288.83 194.34C288.83 193.85 288.02 193.47 288.02 192.73C288.02 191.98 288.83 191.98 288.96 191.24C289.1 190.49 289.91 191.24 290.45 191.61C290.99 191.98 291.66 192.6 291.66 193.1C291.66 193.6 292.74 195.34 293.41 195.58C294.09 195.83 295.84 195.96 296.38 195.34C296.92 194.71 298.27 194.47 298.13 195.96C298 197.45 297.73 197.57 298.67 198.07C299.62 198.56 299.75 200.3 298.94 200.8C298.13 201.3 297.86 201.42 297.86 202.29C297.86 203.16 297.59 204.15 298.27 204.65C298.94 205.15 299.35 205.52 299.35 206.02C299.35 206.51 300.16 208.75 300.16 208.75C300.16 208.75 300.56 210.98 300.42 211.48C300.29 211.98 300.02 212.85 301.23 212.72C302.45 212.6 302.72 212.6 302.72 213.59C302.72 214.59 303.12 214.96 302.45 215.33C301.77 215.7 301.37 216.95 302.04 217.19C302.72 217.44 303.26 217.81 303.39 218.31C303.53 218.81 304.6 219.68 305.28 219.18C305.95 218.68 306.09 218.44 306.63 218.31C307.17 218.19 307.57 217.81 307.03 217.19C306.49 216.57 306.36 215.95 306.9 215.58C307.44 215.21 307.71 213.96 307.71 213.96C307.71 213.96 308.52 212.85 309.46 213.96C310.4 215.08 310.54 214.71 311.21 214.71C311.89 214.71 312.16 215.33 312.16 215.95C312.16 216.57 313.5 216.45 313.5 217.44C313.5 218.44 313.77 220.8 313.77 220.8C313.77 220.8 313.77 222.16 314.58 222.66C315.39 223.16 315.26 223.28 314.85 223.9C314.45 224.52 314.58 225.51 314.58 226.01C314.58 226.51 314.85 226.76 314.18 227.25C313.5 227.75 313.23 228.37 313.64 229.12C314.04 229.86 313.91 230.36 314.99 231.23C316.07 232.1 315.93 232.47 315.93 233.09C315.93 233.71 317.01 234.58 317.01 235.2C317.01 235.82 317.82 236.57 318.49 236.69C319.17 236.82 319.98 237.93 319.98 238.56C319.98 239.18 320.11 240.79 320.11 240.79C320.11 240.79 319.98 241.16 320.79 241.16C321.59 241.16 322.13 242.03 322.4 241.04C322.67 240.05 323.48 239.92 324.02 239.67C324.56 239.42 325.64 238.93 326.18 239.3C326.72 239.67 327.39 239.67 327.93 239.67C328.47 239.67 331.03 239.8 331.03 239.8C331.03 239.8 331.71 239.67 332.11 240.67C332.52 241.66 333.73 242.78 333.06 243.27C332.38 243.77 332.38 244.76 333.19 244.76C334 244.76 334.81 244.76 334.81 245.39C334.81 246.01 334.94 246.5 335.62 246.13C336.29 245.76 336.7 245.63 336.97 246.13C337.24 246.63 337.78 246.63 338.45 247C339.12 247.37 339.39 247.12 339.8 246.63C340.2 246.13 341.82 245.63 341.82 245.63C341.82 245.63 343.98 245.14 344.79 245.39C345.6 245.63 346.67 246.13 346.67 246.13C346.67 246.13 347.21 247.37 346.94 248.12C346.67 248.86 346.41 248.74 346.67 249.86C346.94 250.97 346.41 251.1 345.87 250.97C345.33 250.85 344.79 250.85 344.79 251.84C344.79 252.84 344.25 253.09 344.25 253.96C344.25 254.82 344.25 254.7 343.71 255.07C343.17 255.45 343.03 256.07 343.84 256.19C344.65 256.31 344.38 257.18 344.38 257.68C344.38 258.18 344.25 259.3 344.25 259.3C344.25 259.3 344.38 259.92 343.44 259.92C342.49 259.92 341.69 259.79 341.55 260.41C341.42 261.03 340.34 262.03 341.28 262.65C342.23 263.27 341.96 263.64 341.42 263.89C340.88 264.14 340.47 265.38 341.55 265.75C342.63 266.13 342.49 266.5 341.82 267C341.15 267.49 339.8 267.86 339.8 268.61C339.8 269.36 339.53 269.36 338.72 269.48C337.91 269.6 337.51 270.6 338.45 271.84C339.39 273.08 339.66 272.83 340.34 272.83C341.01 272.83 341.01 271.84 341.01 271.84C341.01 271.84 343.3 271.96 343.98 271.96C344.65 271.96 345.6 271.96 346.14 271.59C346.67 271.22 348.16 270.6 348.16 271.72C348.16 272.83 348.43 272.71 349.1 273.21C349.78 273.7 349.91 273.33 350.45 274.07C350.99 274.82 351.12 274.2 351.53 273.33C351.93 272.46 352.74 271.59 353.42 272.58C354.09 273.58 354.09 273.33 354.9 273.33C355.71 273.33 355.98 273.7 355.98 274.32C355.98 274.94 356.79 274.94 357.73 274.82C358.68 274.7 358.81 275.32 359.21 275.94C359.62 276.56 359.75 276.43 360.29 276.43C360.83 276.43 361.37 276.43 361.78 275.94C362.18 275.44 362.72 274.82 363.26 275.57C363.8 276.31 364.88 276.19 365.15 275.32C365.42 274.45 366.63 273.7 367.31 274.7C367.98 275.69 368.52 275.69 369.19 275.81C369.87 275.94 370.81 275.94 371.22 276.56C371.62 277.18 372.97 278.17 372.02 278.92C371.08 279.66 370 280.66 370.81 280.91C371.62 281.15 372.16 281.4 372.7 282.02C373.24 282.64 374.99 282.89 375.8 283.02C376.61 283.14 377.28 283.27 378.23 282.52C379.17 281.77 380.12 281.77 379.98 282.77C379.85 283.76 380.38 284.88 380.38 284.88C380.38 284.88 381.06 286.49 381.06 287.12C381.06 287.74 380.92 287.86 382.14 288.61C383.35 289.35 383.22 289.85 384.16 289.1C385.1 288.36 385.37 287.98 385.37 287.36C385.37 286.74 385.37 285.38 385.37 285.38C385.37 285.38 386.72 285.13 387.26 284.76C387.8 284.38 389.96 283.27 390.5 283.76C391.04 284.26 391.71 284.13 392.25 283.89C392.79 283.64 393.87 283.64 394.41 283.64C394.95 283.64 395.89 283.76 396.97 282.89C398.05 282.02 398.05 282.27 398.72 282.89C399.4 283.51 399.4 284.26 398.99 284.76C398.59 285.25 398.99 286.37 399.94 286.37C400.88 286.37 401.15 286.87 401.15 287.49C401.15 288.11 401.28 288.98 401.42 289.47C401.55 289.97 401.55 290.22 403.04 290.59C404.52 290.97 404.25 291.83 404.52 292.46C404.79 293.08 404.79 293.57 403.98 293.57C403.17 293.57 402.9 293.95 402.77 294.57C402.63 295.19 401.42 295.44 401.42 295.44C401.3 295.41 400.33 295.21 400.21 295.19C400.21 295.19 399.4 295.19 398.99 295.68C398.59 296.18 397.78 297.17 398.32 298.04C398.86 298.91 398.86 299.41 398.32 299.78C397.78 300.16 397.51 302.02 396.97 301.65C396.43 301.27 395.76 301.77 395.22 302.02C394.68 302.27 394.81 304.01 395.89 304.63C396.97 305.25 397.24 306.12 397.24 306.12C397.36 306.3 398.33 307.79 398.45 307.98C398.45 307.98 398.05 308.35 397.78 308.97C397.51 309.59 396.7 310.84 397.51 311.08C398.32 311.33 397.91 312.7 397.1 312.7C396.3 312.7 395.35 312.33 395.22 313.32C395.08 314.31 394.68 314.07 393.87 313.94C393.06 313.82 391.04 313.32 390.5 314.31C389.96 315.31 389.82 315.68 388.88 315.56C387.94 315.43 388.34 317.05 388.61 317.67C388.88 318.29 389.82 319.16 389.82 319.16C389.82 319.16 390.63 319.78 390.63 321.02C390.63 322.26 390.09 322.14 389.55 321.27C389.01 320.4 387.94 320.52 387.8 321.52C387.67 322.51 387.53 324 386.59 324C385.64 324 385.24 324.25 384.83 324.75C384.43 325.24 383.76 326.11 383.76 326.61C383.76 327.11 383.62 327.6 382.95 327.73C382.27 327.85 382.14 329.22 382.14 329.22C382.14 329.22 380.52 329.47 380.38 330.09C380.25 330.71 380.52 331.7 379.17 331.83C377.82 331.95 377.01 332.82 376.61 333.44C376.2 334.06 376.07 334.56 376.61 335.18C377.15 335.8 377.55 337.79 378.23 338.16C378.9 338.53 379.44 338.66 379.31 339.65C379.17 340.64 378.36 341.39 379.44 341.39C380.52 341.39 381.19 341.64 380.79 342.51C380.38 343.38 380.38 343.5 379.58 343.87C378.77 344.24 378.36 344.24 378.36 345.24C378.36 346.23 378.63 346.23 377.96 346.6C377.28 346.98 377.28 347.47 377.28 348.22C377.28 348.96 377.01 348.72 376.2 349.58C375.4 350.45 374.32 350.45 373.64 350.21C372.97 349.96 372.83 349.96 372.7 349.21C372.56 348.47 371.35 348.47 370.68 348.59C370 348.72 369.06 349.46 369.06 349.46C369.06 349.46 367.84 350.21 368.38 350.83C368.92 351.45 368.65 352.44 367.71 352.32C366.77 352.19 364.61 353.31 363.93 352.19C363.26 351.08 361.37 350.33 361.1 351.82C360.83 353.31 361.91 353.19 361.78 354.68C361.64 356.17 361.37 356.17 360.83 356.66C360.29 357.16 360.29 357.53 360.16 358.15C360.02 358.78 359.89 360.14 360.83 360.64C361.78 361.13 362.18 362.5 362.18 363.25C362.18 363.99 362.18 364.74 363.13 364.74C364.07 364.74 364.88 364.61 365.01 363.74C365.15 362.87 367.04 362.38 367.17 364.12C367.31 365.85 367.31 366.72 367.98 367.47C368.65 368.21 369.19 369.21 369.73 369.58C370.27 369.95 371.18 373.12 371.18 373.12C369.87 373.4 369.53 375.11 368.69 375.45C368.22 375.63 367.71 375.48 367.27 375.79C366.93 376.04 366.93 376.5 366.46 376.72C365.48 377.16 365.65 375.63 364.47 376.19C363.39 376.69 363.29 377.93 361.74 377.4C360.93 377.12 360.43 373.96 360.19 373.21C360.06 372.78 359.21 371.47 358.95 371.07C358.04 369.7 356.21 371.07 355.64 370.67C354.73 370.05 355.14 368.99 353.75 368.87C350.96 368.68 352.94 370.57 351.76 371.01C349.51 371.82 349.51 368.9 347.82 370.23C347.18 370.73 348.83 371.04 348.43 371.91C348.09 372.62 346.44 373.71 346.54 374.55C346.67 375.7 347.92 376.04 348.29 377C349.3 379.55 347.62 381.32 345.09 379.33C343.67 378.21 343.4 376.13 341.21 376.29C340.71 376.32 340.54 376.85 340.03 376.91C339.53 376.94 339.12 376.44 338.58 376.6C337.78 376.88 338.48 377.44 338.31 377.9C338.31 377.9 337.24 378.8 337.07 379.05C336.46 379.86 336.66 380.57 335.79 381.22C335.04 381.78 334.47 381.44 333.66 382.31C332.82 383.21 332.75 384.55 331.67 385.41C331.13 385.85 330.76 384.11 330.09 385.26C329.99 385.41 329.89 385.57 329.82 385.73C329.65 386.07 329.62 386.22 329.79 386.59C331.2 389.33 328.24 390.35 327.33 392.28C326.92 393.08 328.03 393.83 327.59 394.45C327.29 394.92 325.98 396.19 325.88 396.47C325.77 396.75 325.64 397.37 325.4 397.59C325.17 397.83 324.36 397.71 324.29 398.08C324.22 398.52 325.13 398.86 325.37 399.14C325.67 399.48 325.24 399.95 325.34 400.04C326.85 401.56 325.94 401.09 326.72 402.43C326.82 402.62 327.29 402.27 327.46 402.77C327.63 403.24 327.09 403.21 327.29 403.73C327.33 403.89 328.4 405.29 328.4 405.32C328.47 405.78 326.35 406.75 325.88 406.75C324.59 406.78 326.99 404.11 324.9 404.11C323.99 404.11 323.92 406.19 323.68 406.4C323.58 406.5 322.74 406.4 322.54 406.4C321.19 406.4 320.31 408.08 319.77 408.24C319.44 408.36 318.7 408.05 318.12 408.14C317.58 408.24 316.94 408.76 316.44 408.76C316.1 408.76 315.93 408.55 315.66 408.39C315.05 408.05 313.94 407.89 313.27 407.68C312.9 407.55 312.19 408.14 311.95 407.99C311.52 407.71 312.26 406.93 311.25 406.37C311.11 406.31 310.37 404.51 310.4 404.42C310.74 403.24 311.11 401.96 310.94 400.72C310.74 399.45 308.75 398.36 308.21 397.34C307.81 396.56 307.44 394.51 306.66 393.98C305.82 393.43 305.04 392.34 304.6 391.5C304.47 391.25 304.87 390.82 304.57 390.38C304.23 389.92 303.59 389.73 303.42 389.11C303.29 388.61 303.42 387 302.85 386.66C302.21 386.28 298.1 385.79 297.09 385.69C296.55 385.66 296.14 385.66 295.74 385.26C295.57 385.1 295.3 384.45 295.17 384.45C294.76 384.42 294.29 384.64 293.88 384.67C293.58 384.7 293.08 384.48 292.81 384.67C291.49 385.57 291.15 386.72 289.91 387.68C288.63 388.64 287.21 388.61 285.93 389.73C285.12 390.44 284.58 392.15 283.77 392.96C283.43 393.3 282.9 392.96 282.76 393.11C282.09 393.95 281.14 394.45 280.47 395.23C280.33 395.38 280.37 395.69 280.2 395.82C280.05 395.85 278.89 396.15 278.75 396.19C278.38 396.25 277.67 396.16 277.37 396.25C276.69 396.47 276.73 397.18 274.43 397.65C274.27 397.68 273.96 397.83 273.83 397.93C273.56 398.11 273.36 398.39 273.09 398.58C272.92 398.7 272.41 398.49 272.11 398.52C271.54 398.61 271.2 399.11 270.66 399.17C269.45 399.32 267.49 398.61 266.55 398.98C265.97 399.2 264.39 400.97 263.82 401.16C263.44 401.28 263.18 401.13 262.77 400.97C262.57 401.22 262.1 403.14 261.93 403.58C261.93 403.61 259.33 405.78 259.13 406.03C258.79 406.4 258.66 406.81 258.25 407.21C257.98 407.49 257.55 407.74 257.11 407.74C256.57 407.74 255.76 407.34 255.25 407.24C254.28 407.09 251.34 406.96 250.47 407.15C249.56 407.34 249.83 409.94 247.57 410.19C246.25 410.35 245.04 410.6 243.69 410.72C243.56 410.72 242.75 410.16 241.94 410.38C241.63 410.47 240.66 411.46 240.66 411.78C240.66 411.83 240.66 412.28 240.66 412.33C240.66 412.43 240.93 412.77 240.89 412.8C240.39 413.39 239.24 414.32 238.87 415C238.77 415.19 238.63 415.41 238.47 415.53C238.16 415.75 236.61 416.34 236.48 416.62C236.11 417.55 237.56 418.42 237.42 418.79C237.02 420 235.4 421.15 234.89 422.27C234.69 422.74 235.43 424.29 235.4 424.82C235.23 426.27 234.72 428.14 234.79 429.57C234.79 429.85 234.99 431.3 235.09 431.46C235.26 431.74 235.63 431.89 235.87 432.14C236.11 432.39 237.89 435.87 237.96 436.24C238.3 438.82 234.56 437.92 236.71 440.5C237.05 440.9 237.32 441.33 237.69 441.67C238.16 442.14 240.93 444.16 240.96 444.38C241.03 444.75 238.74 445.12 238.33 445.52C237.25 446.58 236.34 448.54 235.3 449.62C234.66 450.31 234.08 449.56 233.24 451.14C232.94 451.73 233.24 453.07 232.87 453.44C232.33 454 231.89 453.26 231.35 453.5C231.12 453.6 230.98 454.28 230.75 454.47C230.14 454.99 224.75 457.85 224.24 457.6C223.97 457.48 223.67 456.58 223.63 456.3C223.57 455.99 223.23 455.31 222.96 455.09C221.58 453.91 219.45 453.69 218.11 455.12C217.77 455.49 217.73 456.05 217.3 456.42C216.55 457.04 215.71 457.6 215 458.22C214.87 458.35 214.46 458.81 214.3 458.78C213.76 458.72 212.44 457.23 212.1 456.83C211.5 456.11 209.74 454.4 209.58 453.6C209.58 450.83 207.42 447.95 206.51 445.25C206.64 445.25 207.72 445.27 207.86 445.28C209.37 444.25 208.94 441.74 211.67 442.73C212 442.26 211.97 441.77 212.61 441.43C212.85 441.3 213.28 441.18 213.42 440.96C214.33 439.56 215.41 434.22 214.46 432.86C213.62 431.62 212.75 431.68 212.07 429.63C211.87 429.07 212.24 428.42 212.07 427.8C211.94 427.3 211.03 424.35 210.89 424.13C210.72 423.88 210.15 423.57 210.12 423.42C210.08 423.17 209.88 419.97 209.98 419.72C209.07 417.24 206 415.66 205.83 415.38C205.46 414.79 205.09 414.01 204.69 413.36C204.22 412.58 204.22 412.18 203.95 411.43C203.85 411.09 203.34 410.81 203.31 410.44C203.24 409.79 205.09 408.42 205.03 407.27C204.99 406.9 203.85 405.78 204.08 405.16C204.32 404.51 205.5 403.05 205.46 402.34C205.4 401.37 203.61 399.29 203.37 398.27C203.27 397.77 204.08 397.37 203.88 397.03C203.64 396.59 201.76 394.88 201.45 394.39C201.22 394.02 202.16 393.52 201.49 392.84C200.88 392.21 201.38 392.43 201.22 391.9C201.01 391.31 200.34 390.79 200.07 390.17C199.83 389.64 198.22 383.8 198.25 383.46C197.98 383.06 197.51 382.71 197.27 382.31C197.04 381.91 196.94 381.13 196.73 380.82C196.7 380.79 194.91 380.26 194.58 379.73C194.31 379.3 194.24 377.87 193.77 377.16C193.53 376.81 193.16 376.88 192.89 376.63C192.65 376.44 192.69 376.1 192.52 375.88C191.98 375.14 190.9 375.82 190.16 373.09C189.18 372.41 188.27 371.82 187.43 370.98C187.26 370.82 187.16 370.64 186.96 370.54C186.28 370.26 185.27 370.17 184.7 369.67C184.36 369.67 182.57 369.61 182.37 369.49C182.17 369.36 181.97 368.59 181.83 368.56C180.89 368.37 179.34 368.46 178.53 367.78C177.89 367.22 177.75 364.52 176.61 364.89C176.47 364.83 176.3 364.77 176.14 364.8C175.39 363.84 172.83 363.71 171.79 363.09C171.48 362.9 170.51 363.06 170.51 362.78C170.74 362.25 170.68 361.82 170.71 361.29C170.14 360.73 169.76 360.08 169.36 359.68C168.38 359.46 168.75 359.37 168.15 358.99C166.46 358.87 166.29 359.15 165.21 360.14C164.94 360.39 164.41 360.45 164.07 360.64C163.49 360.95 163.33 361.97 162.52 361.51C162.25 361.35 162.08 361.1 161.88 360.92C161.4 360.51 161.14 360.73 160.9 359.99C159.52 359.24 155.71 361.82 154.8 360.02C154.16 359.68 153.69 360.11 153.15 359.55C152.88 359.27 153.89 356.17 151.12 354.89C151.76 354.4 152.44 354.06 153.04 353.59C153.21 353.25 153.01 352.72 153.01 352.38C153.01 351.85 153.35 350.83 153.25 350.45C153.15 350.08 152.74 349.77 152.61 349.34C152.44 348.9 152.64 348.34 152.4 347.88C152.24 347.75 151.73 347.44 151.53 347.44C150.82 346.85 150.04 346.48 149.47 345.77C149.34 345.61 149.24 345.33 149.07 345.21C148.56 344.83 146.91 344.34 146.98 343.56C147.01 343.31 147.35 343.28 147.45 343.03C147.55 342.72 147.48 342.32 147.72 342.04C148.49 340.98 150.21 341.45 149.94 339.49C149.81 338.62 149.2 337.88 149.03 336.95C148.73 336.73 148.7 336.36 148.43 336.14C146.74 335.99 146.98 334.25 146.37 333.84C144.58 332.63 143.2 333.38 145.19 330.99C145.46 330.21 143.47 328.97 143.07 328.53C142.36 327.85 142.7 326.42 142.43 325.68C142.29 325.3 141.11 324.65 140.74 324.13C140.64 323.97 140.34 323.16 140.17 323.07C140.17 323.04 140.2 322.85 140.2 322.82C140.57 322.54 140.37 321.98 140.27 321.61C140.03 321.39 139.53 321.45 139.36 321.3C137.74 319.84 135.79 319.19 133.66 318.35C133.09 318.13 133.26 317.67 132.79 317.45C132.38 317.26 129.52 315.99 129.31 316.05C128.98 315.96 128.74 314.69 128.5 314.28C128.3 313.91 127.49 313.23 127.49 313.2C127.56 312.02 126.82 311.86 125.91 311.24C125.98 311.08 125.81 310.71 125.81 310.53C125.81 310.37 126.41 308.32 126.52 308.04C126.68 307.61 127.26 307.2 127.16 306.71C127.02 305.93 126.92 304.72 126.65 304.04C125.74 301.61 124.66 301.93 125.23 298.76C125.37 298.11 125.13 297.73 125.64 297.14C125.57 297.11 125.87 296.8 125.91 296.74C126.21 296.46 127.05 296 127.22 295.78C127.73 295.09 128.03 293.54 128.67 293.05C129.14 292.67 130.49 291.96 130.73 291.65C130.93 291.4 131.23 290.62 131.07 290.31C130.59 290.03 130.12 290.16 129.65 290.1C129.48 290.06 128.87 289.63 128.4 289.54C128.27 289.38 128.03 289.2 128.03 288.98C128.01 288.96 127.85 288.81 127.83 288.79C127.29 288.73 126.68 288.39 126.21 288.23C125.6 287.98 124.76 287.95 124.19 287.61C123.11 286.99 121.9 285.28 120.85 285.03C119.44 284.72 118.53 285.16 117.18 285.22C116.3 285.28 116.3 284.76 115.59 284.54C114.65 284.26 115.36 285.03 113.2 284.35C112.93 284.13 113.33 283.39 113.37 283.11C113.03 283.02 112.63 283.2 112.22 283.11C110.44 282.68 111.11 281.06 110.64 280C110.44 279.76 109.69 279.82 109.36 279.79C109.26 279.76 109.22 279.6 109.26 279.54C109.27 279.53 109.41 279.43 109.42 279.42C109.73 278.95 108.65 277.77 108.68 277.61C108.75 277.24 110.94 276.9 111.24 276.87C111.35 276.59 111.04 276.34 111.01 276.06C110.94 275.44 111.35 274.63 111.55 274.07C111.54 274.06 111.49 273.91 111.48 273.89C110.87 273.55 110.67 273.05 110.13 272.65C110.17 272.37 110.54 272.18 110.6 271.9C111.65 269.01 113.27 271.31 114.68 268.64C114.82 268.39 115.22 267.74 115.36 267.31C115.38 267.3 115.6 267.25 115.63 267.24C115.9 267.31 116.27 267.52 116.54 267.43C116.74 267.15 117.18 267.06 117.51 266.96C117.57 266.98 117.97 267.08 118.02 267.09C120.65 266.53 120.04 265.57 121.56 264.48C121.96 264.2 123.14 264.08 123.68 263.89C124.26 264.14 125.07 265.04 126.14 265.44C126.92 265.75 129.58 266.31 130.02 266.56C130.59 266.87 130.7 267.62 131.2 267.9C132.72 268.7 131.84 267.34 133.29 267.62C134.77 267.93 135.99 269.14 137.37 269.73C137.61 269.82 138.18 269.7 138.45 269.63C138.89 269.54 141.25 269.11 141.48 269.2C141.75 269.29 142.16 269.54 142.43 269.6C142.76 269.67 143.03 268.95 143.27 268.98C144.28 269.14 144.31 269.54 145.66 269.42C145.73 269.42 146.37 265.63 147.01 265.44C147.38 265.35 148.39 266.34 148.7 266.41C149.2 266.53 148.66 265.63 148.63 265.57C148.49 265.26 147.79 262.93 147.82 262.71C147.85 262.59 148.49 262.9 148.8 262.8C149.54 262.56 150.55 262.37 151.09 261.78C151.16 261.72 152.3 260.07 152.34 260.01C152.4 259.73 152.03 259.08 152.2 258.86C152.37 258.67 153.01 258.43 153.31 258.12C153.75 257.68 153.82 256.94 154.43 256.63C156.82 256.41 157.66 254.55 159.82 254.3C159.96 254.3 160.43 254.2 160.53 254.23C160.57 254.31 160.92 254.88 160.97 254.95C161.1 255.14 162.55 256 162.79 255.94C162.99 255.91 163.09 255.57 163.29 255.51C163.73 255.57 164.94 254.82 165.08 254.45C165.11 254.39 164.81 254.02 164.94 253.77C165.05 253.58 166.56 252.46 166.8 252.34C167.34 252.34 167.91 252.22 168.42 252.4C168.72 252.53 168.75 252.99 169.09 253.05C169.46 253.09 170.14 252.93 170.41 252.99C170.71 253.05 170.84 252.43 171.21 252.4C171.23 252.42 171.27 252.45 171.28 252.46Z" id="h4rcj0F284"></path><path d="M286.38 76.14L305.15 133.91L256 98.2L316.75 98.2L267.6 133.91L286.38 76.14Z" id="cz6qQqXUn"></path><path d="M359.47 89.03L378.24 146.8L329.1 111.09L389.84 111.09L340.7 146.8L359.47 89.03Z" id="bm8E9EHrC"></path><path d="M429.22 114.41L447.99 172.18L398.85 136.48L459.59 136.48L410.45 172.18L429.22 114.41Z" id="f3n6hjHYYp"></path><path d="M212.15 76.14L193.38 133.91L242.52 98.2L181.78 98.2L230.92 133.91L212.15 76.14Z" id="a2BMWUPwxk"></path><path d="M139.06 89.03L120.28 146.8L169.43 111.09L108.68 111.09L157.83 146.8L139.06 89.03Z" id="b1i6lncqB"></path><path d="M69.31 114.41L50.54 172.18L99.68 136.48L38.94 136.48L88.08 172.18L69.31 114.41Z" id="ac7cd4N0"></path></defs><g><g><g><use xlink:href="#b6rN2pSXag" opacity="1" fill="#244aa5" fill-opacity="1"></use></g><path></path><g><use xlink:href="#h4rcj0F284" opacity="1" fill="#d0a650" fill-opacity="1"></use><g><use xlink:href="#h4rcj0F284" opacity="1" fill-opacity="0" stroke="#000000" stroke-width="1" stroke-opacity="0"></use></g></g><g><use xlink:href="#cz6qQqXUn" opacity="1" fill="#ffffff" fill-opacity="1"></use><g><use xlink:href="#cz6qQqXUn" opacity="1" fill-opacity="0" stroke="#000000" stroke-width="1" stroke-opacity="0"></use></g></g><g><use xlink:href="#bm8E9EHrC" opacity="1" fill="#ffffff" fill-opacity="1"></use><g><use xlink:href="#bm8E9EHrC" opacity="1" fill-opacity="0" stroke="#000000" stroke-width="1" stroke-opacity="0"></use></g></g><g><use xlink:href="#f3n6hjHYYp" opacity="1" fill="#ffffff" fill-opacity="1"></use><g><use xlink:href="#f3n6hjHYYp" opacity="1" fill-opacity="0" stroke="#000000" stroke-width="1" stroke-opacity="0"></use></g></g><g><use xlink:href="#a2BMWUPwxk" opacity="1" fill="#ffffff" fill-opacity="1"></use><g><use xlink:href="#a2BMWUPwxk" opacity="1" fill-opacity="0" stroke="#000000" stroke-width="1" stroke-opacity="0"></use></g></g><g><use xlink:href="#b1i6lncqB" opacity="1" fill="#ffffff" fill-opacity="1"></use><g><use xlink:href="#b1i6lncqB" opacity="1" fill-opacity="0" stroke="#000000" stroke-width="1" stroke-opacity="0"></use></g></g><g><use xlink:href="#ac7cd4N0" opacity="1" fill="#ffffff" fill-opacity="1"></use><g><use xlink:href="#ac7cd4N0" opacity="1" fill-opacity="0" stroke="#000000" stroke-width="1" stroke-opacity="0"></use></g></g></g></g></svg>