<?xml version="1.0" encoding="UTF-8" standalone="no"?>
<!DOCTYPE svg PUBLIC "-//W3C//DTD SVG 1.1//EN" "http://www.w3.org/Graphics/SVG/1.1/DTD/svg11.dtd">
<svg version="1.1" xmlns="http://www.w3.org/2000/svg" xmlns:xlink="http://www.w3.org/1999/xlink" preserveAspectRatio="xMidYMid meet" viewBox="0 0 512 512" width="512" height="512"><defs><path d="M-128 0L640 0L640 512L-128 512L-128 0Z" id="d5ufJbiuSp"></path><path d="M-128 0L640 0L298.67 341.33L298.67 512L213.33 512L213.33 341.33L-128 0Z" id="apmUkelJz"></path><path d="M256 156.44C224.58 156.44 199.11 181.91 199.11 213.33C199.11 244.75 224.58 270.22 256 270.22C287.42 270.22 312.89 244.75 312.89 213.33C312.89 181.91 287.42 156.44 256 156.44Z" id="f29ePy2HNt"></path><path d="M184.89 213.33L327.11 213.33L256 341.33L184.89 213.33Z" id="a2rMtxbTpZ"></path><path d="M256 341.33L142.22 234.67L369.78 234.67L256 341.33Z" id="a2Y0OXLiSe"></path></defs><g><g><g><use xlink:href="#d5ufJbiuSp" opacity="1" fill="#003787" fill-opacity="1"></use><g><use xlink:href="#d5ufJbiuSp" opacity="1" fill-opacity="0" stroke="#000000" stroke-width="1" stroke-opacity="0"></use></g></g><g><use xlink:href="#apmUkelJz" opacity="1" fill="#ffffff" fill-opacity="1"></use><g><use xlink:href="#apmUkelJz" opacity="1" fill-opacity="0" stroke="#000000" stroke-width="1" stroke-opacity="0"></use></g></g><g><use xlink:href="#f29ePy2HNt" opacity="1" fill="#f9d90f" fill-opacity="1"></use><g><use xlink:href="#f29ePy2HNt" opacity="1" fill-opacity="0" stroke="#000000" stroke-width="1" stroke-opacity="0"></use></g></g><g><use xlink:href="#a2rMtxbTpZ" opacity="1" fill="#ffffff" fill-opacity="1"></use><g><use xlink:href="#a2rMtxbTpZ" opacity="1" fill-opacity="0" stroke="#000000" stroke-width="1" stroke-opacity="0"></use></g></g><g><use xlink:href="#a2Y0OXLiSe" opacity="1" fill="#cf142b" fill-opacity="1"></use><g><use xlink:href="#a2Y0OXLiSe" opacity="1" fill-opacity="0" stroke="#000000" stroke-width="1" stroke-opacity="0"></use></g></g></g></g></svg>