<?xml version="1.0" encoding="UTF-8" standalone="no"?>
<!DOCTYPE svg PUBLIC "-//W3C//DTD SVG 1.1//EN" "http://www.w3.org/Graphics/SVG/1.1/DTD/svg11.dtd">
<svg version="1.1" xmlns="http://www.w3.org/2000/svg" xmlns:xlink="http://www.w3.org/1999/xlink" preserveAspectRatio="xMidYMid meet" viewBox="0 0 512 512" width="512" height="512"><defs><path d="M936 0C936 0 936 0 936 0C936 307.2 936 477.87 936 512C936 512 936 512 936 512C321.6 512 -19.73 512 -88 512C-88 512 -88 512 -88 512C-88 204.8 -88 34.13 -88 0C-88 0 -88 0 -88 0C526.4 0 867.73 0 936 0Z" id="boFFhaHuG"></path><path d="M936 0C936 0 936 0 936 0C936 204.8 936 318.58 936 341.33C936 341.33 936 341.33 936 341.33C321.6 341.33 -19.73 341.33 -88 341.33C-88 341.33 -88 341.33 -88 341.33C-88 136.53 -88 22.76 -88 0C-88 0 -88 0 -88 0C526.4 0 867.73 0 936 0Z" id="bhuWF2YzU"></path><path d="M936 0C936 0 936 0 936 0C936 102.4 936 159.29 936 170.67C936 170.67 936 170.67 936 170.67C321.6 170.67 -19.73 170.67 -88 170.67C-88 170.67 -88 170.67 -88 170.67C-88 68.27 -88 11.38 -88 0C-88 0 -88 0 -88 0C526.4 0 867.73 0 936 0Z" id="ctJA79Mvh"></path><path d="M253.33 88.2C160.66 88.2 85.53 163.33 85.53 256C85.53 348.67 160.66 423.8 253.33 423.8C346.01 423.8 421.13 348.67 421.13 256C421.13 163.33 346.01 88.2 253.33 88.2Z" id="b1IprKIeyb"></path><path d="M318.45 411.79C318.45 411.79 294.21 385.57 281.79 375.33C269.67 365.34 234.02 365.74 221.85 375.33C211.7 383.34 182.57 412.84 185.77 410.08C254.26 438.04 291.91 411.45 318.45 411.79Z" id="hffudyAFe"></path><path d="M272.11 333.37C272.11 348.45 263.7 360.68 253.33 360.68C242.97 360.68 234.56 348.45 234.56 333.37C234.56 318.29 242.97 306.06 253.33 306.06C263.7 306.06 272.11 318.29 272.11 333.37Z" id="d13aBNOIRP"></path><path d="M276.09 259.98C276.09 267.94 265.9 274.39 253.33 274.39C240.77 274.39 230.58 267.94 230.58 259.98C230.58 252.03 240.77 245.58 253.33 245.58C265.9 245.58 276.09 252.03 276.09 259.98Z" id="bBUCR4LI3"></path><path d="M276.09 193.42C276.09 205.99 265.9 216.18 253.33 216.18C240.77 216.18 230.58 205.99 230.58 193.42C230.58 180.85 240.77 170.67 253.33 170.67C265.9 170.67 276.09 180.85 276.09 193.42Z" id="a85aqPDU3U"></path><path d="M278.46 119.39C258.64 155.1 238.74 155.87 234.96 158.95C230.8 162.34 229.05 162.1 229.05 162.1C229.34 159.05 229.62 146.54 229.84 145.34C232.85 128.65 258.05 128.88 277.77 111.8C280.85 109.13 280.63 108.64 280.63 108.64C280.2 110.79 282.61 111.92 278.46 119.39Z" id="c1na4ledDM"></path><path d="M219.2 211.06C220.26 231.53 239.89 232.11 253.33 232.11C253.33 230.97 253.33 221.87 253.33 220.73C243.25 220.73 234.5 219.23 227.16 204.23C223.55 196.83 214.08 185.46 214.08 185.46C215.1 190.58 218.53 198.23 219.2 211.06Z" id="a1sDZCxKwy"></path><path d="M229.06 320.88C233.43 310.07 243.79 303.79 253.33 303.79C253.33 302.19 253.33 289.45 253.33 287.86C231.68 287.86 221.3 295.89 220.21 307.61C217.96 331.71 213.51 350.44 213.51 350.44C216.62 344.52 220.67 341.6 229.06 320.88Z" id="e2kfl68KTr"></path><path d="M287.47 211.06C286.4 231.53 266.78 232.11 253.33 232.11C253.33 230.97 253.33 221.87 253.33 220.73C263.41 220.73 272.17 219.23 279.5 204.23C283.12 196.83 292.59 185.46 292.59 185.46C291.56 190.58 288.13 198.23 287.47 211.06Z" id="d6pWL8xcx7"></path><path d="M277.61 320.88C273.24 310.07 262.88 303.79 253.33 303.79C253.33 302.19 253.33 289.45 253.33 287.86C274.98 287.86 285.36 295.89 286.46 307.61C288.71 331.71 293.16 350.44 293.16 350.44C290.05 344.52 285.99 341.6 277.61 320.88Z" id="b23rbONqy"></path></defs><g><g><g><use xlink:href="#boFFhaHuG" opacity="1" fill="#009543" fill-opacity="1"></use><g><use xlink:href="#boFFhaHuG" opacity="1" fill-opacity="0" stroke="#000000" stroke-width="1" stroke-opacity="0"></use></g></g><g><use xlink:href="#bhuWF2YzU" opacity="1" fill="#ed4135" fill-opacity="1"></use><g><use xlink:href="#bhuWF2YzU" opacity="1" fill-opacity="0" stroke="#000000" stroke-width="1" stroke-opacity="0"></use></g></g><g><use xlink:href="#ctJA79Mvh" opacity="1" fill="#0035ad" fill-opacity="1"></use><g><use xlink:href="#ctJA79Mvh" opacity="1" fill-opacity="0" stroke="#000000" stroke-width="1" stroke-opacity="0"></use></g></g><g><use xlink:href="#b1IprKIeyb" opacity="1" fill="#fae600" fill-opacity="1"></use><g><use xlink:href="#b1IprKIeyb" opacity="1" fill-opacity="0" stroke="#000000" stroke-width="5" stroke-opacity="1"></use></g></g><path></path><g><use xlink:href="#hffudyAFe" opacity="1" fill="#000000" fill-opacity="1"></use><g><use xlink:href="#hffudyAFe" opacity="1" fill-opacity="0" stroke="#000000" stroke-width="1" stroke-opacity="0"></use></g></g><g><use xlink:href="#d13aBNOIRP" opacity="1" fill="#000000" fill-opacity="1"></use><g><use xlink:href="#d13aBNOIRP" opacity="1" fill-opacity="0" stroke="#000000" stroke-width="1" stroke-opacity="0"></use></g></g><g><use xlink:href="#bBUCR4LI3" opacity="1" fill="#000000" fill-opacity="1"></use><g><use xlink:href="#bBUCR4LI3" opacity="1" fill-opacity="0" stroke="#000000" stroke-width="1" stroke-opacity="0"></use></g></g><g><use xlink:href="#a85aqPDU3U" opacity="1" fill="#000000" fill-opacity="1"></use><g><use xlink:href="#a85aqPDU3U" opacity="1" fill-opacity="0" stroke="#000000" stroke-width="1" stroke-opacity="0"></use></g></g><g><use xlink:href="#c1na4ledDM" opacity="1" fill="#000000" fill-opacity="1"></use><g><use xlink:href="#c1na4ledDM" opacity="1" fill-opacity="0" stroke="#000000" stroke-width="1" stroke-opacity="0"></use></g></g><g><use xlink:href="#a1sDZCxKwy" opacity="1" fill="#000000" fill-opacity="1"></use><g><use xlink:href="#a1sDZCxKwy" opacity="1" fill-opacity="0" stroke="#000000" stroke-width="1" stroke-opacity="0"></use></g></g><g><use xlink:href="#e2kfl68KTr" opacity="1" fill="#000000" fill-opacity="1"></use><g><use xlink:href="#e2kfl68KTr" opacity="1" fill-opacity="0" stroke="#000000" stroke-width="1" stroke-opacity="0"></use></g></g><g><use xlink:href="#d6pWL8xcx7" opacity="1" fill="#000000" fill-opacity="1"></use><g><use xlink:href="#d6pWL8xcx7" opacity="1" fill-opacity="0" stroke="#000000" stroke-width="1" stroke-opacity="0"></use></g></g><g><use xlink:href="#b23rbONqy" opacity="1" fill="#000000" fill-opacity="1"></use><g><use xlink:href="#b23rbONqy" opacity="1" fill-opacity="0" stroke="#000000" stroke-width="1" stroke-opacity="0"></use></g></g></g></g></svg>