<?xml version="1.0" encoding="UTF-8" standalone="no"?>
<svg
   xmlns:dc="http://purl.org/dc/elements/1.1/"
   xmlns:cc="http://creativecommons.org/ns#"
   xmlns:rdf="http://www.w3.org/1999/02/22-rdf-syntax-ns#"
   xmlns:svg="http://www.w3.org/2000/svg"
   xmlns="http://www.w3.org/2000/svg"
   xmlns:sodipodi="http://sodipodi.sourceforge.net/DTD/sodipodi-0.dtd"
   xmlns:inkscape="http://www.inkscape.org/namespaces/inkscape"
   width="512"
   height="512"
   viewBox="0 0 1194.6666 1194.6667"
   version="1.1"
   id="svg5017"
   sodipodi:docname="спм 1x1.svg"
   inkscape:version="0.92.1 r15371">
  <metadata
     id="metadata5023">
    <rdf:RDF>
      <cc:Work
         rdf:about="">
        <dc:format>image/svg+xml</dc:format>
        <dc:type
           rdf:resource="http://purl.org/dc/dcmitype/StillImage" />
        <dc:title></dc:title>
      </cc:Work>
    </rdf:RDF>
  </metadata>
  <defs
     id="defs5021" />
  <sodipodi:namedview
     pagecolor="#ffffff"
     bordercolor="#666666"
     borderopacity="1"
     objecttolerance="10"
     gridtolerance="10"
     guidetolerance="10"
     inkscape:pageopacity="0"
     inkscape:pageshadow="2"
     inkscape:window-width="1280"
     inkscape:window-height="962"
     id="namedview5019"
     showgrid="false"
     inkscape:zoom="0.78666667"
     inkscape:cx="225"
     inkscape:cy="150"
     inkscape:window-x="-8"
     inkscape:window-y="-8"
     inkscape:window-maximized="1"
     inkscape:current-layer="svg5017" />
  <linearGradient
     id="path637_1_"
     gradientUnits="userSpaceOnUse"
     x1="162.58949"
     y1="168.85519"
     x2="159.2155"
     y2="168.1512"
     gradientTransform="matrix(0.7645,0,0,1.1676,32.8563,473.2718)">
    <stop
       offset="0"
       stop-color="#000"
       id="stop4475" />
    <stop
       offset="1"
       stop-color="#00F"
       id="stop4477" />
  </linearGradient>
  <linearGradient
     id="path860_1_"
     gradientUnits="userSpaceOnUse"
     x1="160.1916"
     y1="148.8542"
     x2="155.3206"
     y2="148.15021"
     gradientTransform="matrix(0.667,0,0,1.3383,38.4163,466.9881)">
    <stop
       offset="0"
       stop-color="#000"
       id="stop4480" />
    <stop
       offset="1"
       stop-color="#00F"
       id="stop4482" />
  </linearGradient>
  <linearGradient
     id="path861_1_"
     gradientUnits="userSpaceOnUse"
     x1="136.4156"
     y1="180.08321"
     x2="130.8806"
     y2="177.0192"
     gradientTransform="matrix(0.8667,0,0,1.0299,27.0326,478.4077)">
    <stop
       offset="0"
       stop-color="#000"
       id="stop4485" />
    <stop
       offset="1"
       stop-color="#00F"
       id="stop4487" />
  </linearGradient>
  <linearGradient
     id="path634_1_"
     gradientUnits="userSpaceOnUse"
     x1="141.3148"
     y1="197.23489"
     x2="123.5788"
     y2="191.6759"
     gradientTransform="matrix(1.0259,0,0,0.8701,17.9565,484.288)">
    <stop
       offset="0"
       stop-color="#000"
       id="stop4490" />
    <stop
       offset="1"
       stop-color="#00F"
       id="stop4492" />
  </linearGradient>
  <linearGradient
     id="path864_1_"
     gradientUnits="userSpaceOnUse"
     x1="294.97879"
     y1="164.0829"
     x2="290.81979"
     y2="163.2139"
     gradientTransform="matrix(0.7321,0,0,1.2193,34.7065,471.4055)">
    <stop
       offset="0"
       stop-color="#000"
       id="stop4495" />
    <stop
       offset="1"
       stop-color="#00F"
       id="stop4497" />
  </linearGradient>
  <linearGradient
     id="path640_1_"
     gradientUnits="userSpaceOnUse"
     x1="294.3681"
     y1="153.8427"
     x2="288.4071"
     y2="151.7168"
     gradientTransform="matrix(0.6637,0,0,1.3449,38.6031,466.7503)">
    <stop
       offset="0"
       stop-color="#000"
       id="stop4500" />
    <stop
       offset="1"
       stop-color="#00F"
       id="stop4502" />
  </linearGradient>
  <linearGradient
     id="path638_1_"
     gradientUnits="userSpaceOnUse"
     x1="233.91071"
     y1="188.47411"
     x2="231.62669"
     y2="183.5041"
     gradientTransform="matrix(0.835,0,0,1.069,28.84,476.9695)">
    <stop
       offset="0"
       stop-color="#000"
       id="stop4505" />
    <stop
       offset="1"
       stop-color="#00F"
       id="stop4507" />
  </linearGradient>
  <linearGradient
     id="path639_1_"
     gradientUnits="userSpaceOnUse"
     x1="204.1434"
     y1="210.7169"
     x2="202.4774"
     y2="205.8289"
     gradientTransform="matrix(1.0214,0,0,0.874,18.216,484.1292)">
    <stop
       offset="0"
       stop-color="#000"
       id="stop4510" />
    <stop
       offset="1"
       stop-color="#00F"
       id="stop4512" />
  </linearGradient>
  <linearGradient
     id="path630_1_"
     gradientUnits="userSpaceOnUse"
     x1="47.983299"
     y1="175.46049"
     x2="42.068298"
     y2="171.9386"
     gradientTransform="matrix(0.8945,0,0,0.998,25.9529,479.5564)">
    <stop
       offset="0"
       stop-color="#000"
       id="stop4515" />
    <stop
       offset="1"
       stop-color="#00F"
       id="stop4517" />
  </linearGradient>
  <linearGradient
     id="path870_1_"
     gradientUnits="userSpaceOnUse"
     x1="29.442699"
     y1="176.2462"
     x2="22.5387"
     y2="172.1353"
     gradientTransform="matrix(0.7999,0,0,1.1159,31.3415,475.2243)">
    <stop
       offset="0"
       stop-color="#000"
       id="stop4520" />
    <stop
       offset="1"
       stop-color="#00F"
       id="stop4522" />
  </linearGradient>
  <linearGradient
     id="path632_1_"
     gradientUnits="userSpaceOnUse"
     x1="37.594601"
     y1="203.72749"
     x2="31.180599"
     y2="199.9095"
     gradientTransform="matrix(1.0448,0,0,0.8544,17.3814,484.8474)">
    <stop
       offset="0"
       stop-color="#000"
       id="stop4525" />
    <stop
       offset="1"
       stop-color="#00F"
       id="stop4527" />
  </linearGradient>
  <linearGradient
     id="path633_1_"
     gradientUnits="userSpaceOnUse"
     x1="42.217899"
     y1="174.4783"
     x2="36.6479"
     y2="171.1633"
     gradientTransform="matrix(0.7606,0,0,1.1737,33.5854,473.0608)">
    <stop
       offset="0"
       stop-color="#000"
       id="stop4530" />
    <stop
       offset="1"
       stop-color="#00F"
       id="stop4532" />
  </linearGradient>
  <linearGradient
     id="path626_1_"
     gradientUnits="userSpaceOnUse"
     x1="15.0012"
     y1="131.77431"
     x2="24.6612"
     y2="131.77431"
     gradientTransform="matrix(1.0293,0,0,0.8672,17.7634,484.4191)">
    <stop
       offset="0"
       stop-color="#000"
       id="stop4535" />
    <stop
       offset="1"
       stop-color="#00F"
       id="stop4537" />
  </linearGradient>
  <linearGradient
     id="path627_1_"
     gradientUnits="userSpaceOnUse"
     x1="-0.7529"
     y1="121.8305"
     x2="8.9900999"
     y2="121.8305"
     gradientTransform="matrix(0.7999,0,0,1.1159,30.8397,475.2243)">
    <stop
       offset="0"
       stop-color="#000"
       id="stop4540" />
    <stop
       offset="1"
       stop-color="#00F"
       id="stop4542" />
  </linearGradient>
  <linearGradient
     id="path628_1_"
     gradientUnits="userSpaceOnUse"
     x1="27.6418"
     y1="121.2954"
     x2="37.645802"
     y2="121.2954"
     gradientTransform="matrix(0.9458,0,0,0.9438,22.5253,481.5869)">
    <stop
       offset="0"
       stop-color="#000"
       id="stop4545" />
    <stop
       offset="1"
       stop-color="#00F"
       id="stop4547" />
  </linearGradient>
  <linearGradient
     id="path629_1_"
     gradientUnits="userSpaceOnUse"
     x1="33.5588"
     y1="104.8401"
     x2="41.3088"
     y2="104.8401"
     gradientTransform="matrix(0.7175,0,0,1.2441,35.5381,470.4819)">
    <stop
       offset="0"
       stop-color="#000"
       id="stop4550" />
    <stop
       offset="1"
       stop-color="#00F"
       id="stop4552" />
  </linearGradient>
  <linearGradient
     id="path567_1_"
     gradientUnits="userSpaceOnUse"
     x1="91.961998"
     y1="207.73109"
     x2="92.128998"
     y2="185.55009"
     gradientTransform="matrix(1.0629,0,0,0.8398,-3.2212,474.3029)">
    <stop
       offset="0"
       stop-color="#4A0000"
       id="stop4555" />
    <stop
       offset="1"
       stop-color="#FFCF00"
       id="stop4557" />
  </linearGradient>
  <linearGradient
     id="path574_1_"
     gradientUnits="userSpaceOnUse"
     x1="49.018799"
     y1="178.0558"
     x2="62.979801"
     y2="164.9668"
     gradientTransform="matrix(0.9378,0,0,0.9518,3.9096,470.1762)">
    <stop
       offset="0"
       stop-color="#4A0000"
       id="stop4560" />
    <stop
       offset="1"
       stop-color="#FFCF00"
       id="stop4562" />
  </linearGradient>
  <linearGradient
     id="path597_1_"
     gradientUnits="userSpaceOnUse"
     x1="104.8518"
     y1="159.4613"
     x2="103.9658"
     y2="166.26331"
     gradientTransform="matrix(0.7891,0,0,1.1312,12.3873,448.2513)">
    <stop
       offset="0"
       stop-color="#000"
       id="stop4565" />
    <stop
       offset="1"
       stop-color="#00F"
       id="stop4567" />
  </linearGradient>
  <linearGradient
     id="path956_1_"
     gradientUnits="userSpaceOnUse"
     x1="52.2714"
     y1="179.00751"
     x2="64.600403"
     y2="167.44749"
     gradientTransform="matrix(0.9239,0,0,0.9662,4.7053,469.63)">
    <stop
       offset="0"
       stop-color="#4A0000"
       id="stop4570" />
    <stop
       offset="1"
       stop-color="#FFCF00"
       id="stop4572" />
  </linearGradient>
  <linearGradient
     id="path957_1_"
     gradientUnits="userSpaceOnUse"
     x1="44.3251"
     y1="221.7289"
     x2="55.467098"
     y2="211.28191"
     gradientTransform="matrix(1.1431,0,0,0.7809,-7.7896,461.2065)">
    <stop
       offset="0"
       stop-color="#4A0000"
       id="stop4575" />
    <stop
       offset="1"
       stop-color="#FFCF00"
       id="stop4577" />
  </linearGradient>
  <rect
     x="1.1588719"
     width="1188.1951"
     height="1194.6666"
     id="rect4666"
     y="-1.1352519e-006"
     style="fill:#0092c8;stroke-width:1.62925529" />
  <path
     d="m 636.12495,97.524043 c -3.38912,3.718827 -4.51987,7.435947 -3.84174,12.393807 0.90365,7.18848 0.90365,7.18848 -8.13449,5.20533 -17.17113,-3.22218 -49.25656,-1.48821 -69.14022,3.96458 -26.889,7.43596 -39.76733,6.94102 -70.9491,-3.46964 -3.61465,-1.23904 -3.38913,0 2.25992,11.40224 6.77825,13.63284 9.94185,16.35839 25.75824,22.55531 l 10.16737,3.96628 -18.30186,5.20534 c -9.94185,2.97471 -19.88367,5.4528 -21.91652,5.4528 -7.45637,0 -3.84172,4.46123 6.77825,8.42751 15.36379,5.70028 31.6328,4.95787 64.84742,-3.71882 23.49986,-5.94774 33.4417,-7.43595 48.12737,-6.69184 10.16892,0.24746 19.20707,1.73568 20.11074,2.72725 1.12918,0.99158 -4.29434,7.93088 -11.52363,15.36683 -11.07257,10.9056 -15.13983,13.38538 -21.69098,13.63285 -4.51987,0 -11.52364,0.74411 -15.36536,1.48651 -6.77824,1.48821 -7.00376,1.98315 -7.00376,15.86347 v 14.37695 l -52.4217,54.03477 c -28.92185,29.74379 -56.0348,56.01792 -60.10204,58.74346 -4.06727,2.72726 -8.13452,6.69356 -9.26525,8.92417 -2.48547,4.95616 0.45259,13.88031 5.19798,15.86346 2.93651,1.23904 1.12919,5.4528 -9.03817,20.81963 -14.68721,22.30784 -25.98531,46.10389 -34.79641,72.62549 l -6.32718,18.58901 -3.61466,-13.63285 c -5.87457,-21.8112 -10.39443,-53.53813 -10.39443,-74.35946 0,-19.08565 0,-19.08565 11.74915,-37.42721 14.23616,-22.30784 47.67631,-60.47914 66.20371,-75.84596 7.45637,-6.19691 20.11074,-14.62443 28.2437,-18.83819 18.07634,-9.17163 22.5962,-13.38538 22.5962,-20.32469 0,-8.18005 -5.42352,-12.14635 -14.00909,-10.1632 -4.97091,0.99157 -25.0801,-2.47807 -59.42546,-10.1632 -28.46922,-6.1952 -52.19462,-11.64971 -52.42015,-11.64971 0,-0.24747 2.25995,-10.9056 5.42198,-23.79434 3.61619,-15.11936 7.45637,-25.77749 11.07257,-29.99125 6.77825,-7.93259 7.00376,-17.10251 0.22552,-24.04352 -11.29809,-11.64971 -28.24369,-1.48651 -25.75825,15.36853 l 1.12921,8.42753 -14.91275,1.73396 c -8.13451,0.99157 -27.56557,5.45281 -42.93093,10.1632 -31.18021,9.4191 -55.58372,10.9056 -71.62566,4.7087 -4.97093,-1.98315 -9.2637,-3.71713 -9.49079,-3.71713 -0.45105,0 -0.67658,2.72555 -0.67658,6.19692 0,10.65813 6.1001,20.07551 16.04194,25.53002 l 9.48923,5.20363 -6.32563,1.73568 c -3.38913,0.99157 -13.55805,0.99157 -22.82174,0.24747 -9.2637,-0.74241 -16.72008,-0.74241 -16.72008,0 0,5.20532 11.07103,19.08565 18.30188,23.05193 15.8164,8.92417 48.8055,5.70027 85.40924,-8.42751 18.30186,-6.93931 42.02726,-8.92246 40.44545,-3.46965 -0.90366,2.97471 -32.762,29.24714 -87.44208,72.12885 -27.56712,21.56373 -31.8599,27.51317 -27.56712,37.92383 2.25992,5.70026 1.5818,7.93088 -5.19645,20.32469 -14.68722,27.264 -28.46921,74.112 -28.46921,97.90635 0,11.89716 -0.67814,12.88874 -15.59089,30.24042 -30.50364,35.19658 -90.15463,117.23945 -103.03452,141.77791 l -4.067253,7.68341 -4.292782,-5.94773 C 80.511543,601.93105 62.4352,608.62288 62.4352,623.74225 c 0,10.41066 5.874573,16.3601 16.494552,16.3601 5.874572,0 17.623728,4.95616 37.960008,16.3584 l 29.59995,16.11093 -5.64904,6.69355 c -10.8455,12.88874 -13.10543,23.05023 -7.45638,31.72523 2.71099,3.96629 6.10011,4.71039 18.75292,4.71039 13.55804,0 18.07635,1.23904 33.66723,9.66656 15.36535,8.42752 21.23993,13.63286 43.83458,39.41034 69.81835,80.06145 86.99104,96.66731 128.79121,124.92458 24.178,16.35841 68.23811,40.15445 89.9291,48.82945 70.49648,27.76063 148.22381,32.96596 221.65839,14.87188 33.89275,-8.42751 58.74737,-18.09407 91.28374,-35.94068 18.07639,-10.16149 26.88897,-13.63286 27.34007,-11.64971 0.67818,1.73568 2.71098,8.92416 4.74543,15.86346 3.84018,13.63286 15.13819,34.45419 19.88374,36.43563 1.5817,0.49664 37.73281,-4.95616 80.66369,-12.14464 42.931,-7.18847 78.63112,-13.13621 79.53474,-13.38539 4.29281,-0.24746 9.49066,-27.26399 9.49066,-48.33279 0,-21.56544 -0.45252,-23.05195 -9.94176,-43.37664 -12.20176,-25.77749 -30.72913,-47.09375 -48.57995,-56.01792 l -12.65286,-6.44437 5.42198,-7.68341 c 25.0817,-36.43734 54.68012,-88.73643 66.20369,-116.74453 l 6.55269,-16.11093 11.74922,-0.24917 c 6.3272,0 12.2018,-0.99157 12.8799,-2.23062 0.6782,-0.99157 -0.2255,-11.40224 -2.0345,-22.80277 -1.8072,-11.40224 -3.389,-21.0688 -3.389,-21.56544 0,-0.24747 4.0673,-0.49493 9.0382,-0.49493 h 9.0382 v -28.0081 -28.25728 l 39.0891,-81.54795 c 21.24,-44.86314 41.1236,-84.27349 44.0617,-87.2482 7.0037,-7.68512 6.1,-19.33312 -2.26,-26.02667 -5.1964,-4.21376 -7.0053,-4.46122 -12.6528,-1.98315 -7.0053,3.22219 -12.4272,12.88875 -10.3945,18.34326 0.6782,1.98144 -1.1291,7.43594 -3.6146,12.39211 -4.0672,7.68511 -5.8744,8.67498 -10.8454,7.68511 -3.3891,-0.7441 -29.149,-5.45451 -57.3926,-10.65813 l -51.06397,-9.41909 -25.08159,49.57183 c -13.78203,27.2657 -24.85462,49.82101 -24.62754,50.31765 0.451,0.24747 26.66188,2.47808 58.29474,4.7087 31.63276,2.2306 58.06916,4.71039 58.52186,5.20533 0.4509,0.24746 -7.2309,15.86347 -16.9472,34.45419 l -17.62377,33.4609 H 942.7399 c -45.18925,0 -51.96902,0.49664 -54.45446,3.96629 -2.25847,3.46966 -3.38917,-0.24747 -7.68187,-21.56373 -7.0039,-35.94069 -13.78368,-83.28363 -13.78368,-95.67744 0,-12.14463 9.94187,-37.17973 28.01825,-70.8881 26.88895,-50.07018 65.30005,-98.65044 80.66533,-101.87263 13.1055,-2.72726 22.36918,-10.41067 22.36918,-18.59072 0,-8.42752 -3.61626,-12.39381 -12.6544,-13.63285 -6.10016,-0.74411 -85.86023,-35.19658 -89.47649,-38.66624 -2.25846,-1.98315 9.03814,-44.61568 13.10538,-49.82101 11.97632,-14.87189 -11.07104,-36.18815 -23.95087,-22.06037 -4.97088,5.45279 -5.87452,17.1025 -1.58171,22.06037 2.25989,2.47807 -0.22555,2.72554 -11.97478,0.99158 -22.8217,-2.97473 -44.51281,-1.73569 -64.84732,3.96458 -22.59637,6.44438 -40.22012,6.69355 -60.10364,0.49664 -8.5856,-2.47809 -15.13829,-3.46965 -15.13829,-2.23062 0,5.70027 9.71467,21.0688 16.49445,26.02497 4.06725,2.97472 11.2966,6.44436 16.26748,7.43594 l 8.81258,2.23061 -13.55649,4.21377 c -7.23077,2.2306 -17.85072,5.4545 -23.49978,6.94101 l -10.16742,2.97472 9.03825,4.46122 c 13.55648,6.69185 37.28181,5.94945 66.20369,-1.98315 16.49456,-4.46122 30.72923,-6.44437 44.96379,-6.69183 17.85083,-0.24747 26.43643,1.4865 23.04726,4.21376 -30.27802,26.27242 -134.4403,112.77823 -146.19095,121.45322 -18.07484,13.38539 -20.78737,17.35167 -20.78737,29.00138 0,6.44438 1.13071,8.42752 6.5528,10.65813 l 6.55269,2.47808 -7.90752,13.63286 c -4.51978,7.43594 -11.52358,22.06036 -15.81791,32.46932 l -7.90753,18.8382 -4.06715,-8.675 c -3.8417,-8.67498 -7.68198,-25.03508 -9.94187,-43.62409 -1.12917,-8.67499 0,-12.64129 9.48923,-30.48789 13.33248,-25.53004 34.79649,-57.25697 46.99814,-69.65078 5.19654,-5.20362 10.16742,-10.9056 11.07259,-12.39211 1.80735,-3.46965 -4.97089,-12.3938 -9.49077,-12.3938 -3.38907,0 -84.28001,-61.47072 -84.28001,-63.9488 0,-6.94101 12.2018,-42.63253 15.81643,-46.35136 2.48544,-2.47808 4.51989,-7.68341 4.51989,-11.64971 0,-14.871887 -17.39825,-22.555297 -27.34008,-11.649697 z m 46.31997,111.291727 c 16.72022,12.88874 30.50368,24.04352 30.72924,24.78591 0,1.73568 -59.20001,25.03509 -60.32912,23.79605 -0.45108,-0.49664 2.71092,-8.92415 7.00526,-18.59071 4.51835,-9.66656 8.13308,-19.08565 8.13308,-21.0688 0,-3.71713 -21.69108,-16.3584 -28.01827,-16.3584 -5.42197,0 -6.32563,-4.21376 -3.38912,-14.87189 l 2.71255,-9.91403 6.32563,4.46123 c 3.38912,2.23061 19.88366,14.87189 36.83075,27.76064 z m 283.79487,9.91402 c 0,1.48822 -90.83276,32.47104 -91.96347,31.47947 -0.45099,-0.49494 12.65428,-51.30752 16.26901,-62.95723 0.67807,-1.98315 13.33093,2.72555 38.18555,13.63286 20.56171,9.16992 37.50891,17.1025 37.50891,17.8449 z M 614.88501,191.21662 c -0.67814,1.48821 -2.48545,2.72725 -3.84017,2.72725 -1.35628,0 -1.35628,-1.48651 0.45105,-3.71711 3.16359,-4.21377 5.87458,-3.22219 3.38912,0.98986 z m 242.44565,34.20671 c -4.97088,17.59745 -9.94176,32.71851 -10.8455,33.71008 -1.35615,1.73398 -32.53638,12.88875 -83.60188,29.99126 -16.49446,5.4528 -18.52737,5.70027 -13.55649,1.73397 3.1621,-2.72555 30.05106,-25.53003 59.87655,-50.81088 29.8255,-25.03509 54.90555,-45.85642 55.58363,-45.85642 0.90374,-0.24747 -2.48543,13.88032 -7.45631,31.23199 z m -428.855,-5.20532 c 47.44924,10.65813 48.35289,10.9056 39.54181,13.63284 -3.6162,1.23904 -26.43639,8.17836 -50.3873,15.6143 l -43.83459,13.38539 1.58181,-6.69185 c 4.97091,-22.80448 10.84548,-44.86484 11.97467,-44.86484 0.90522,0 19.20708,3.96629 41.1236,8.92416 z m -68.91469,11.40224 c -0.45261,1.73396 -2.93806,11.15306 -5.64905,20.81962 l -4.51831,17.84661 -17.62529,5.20533 c -9.48922,2.72555 -24.40197,7.43595 -32.98909,10.1632 -8.58555,2.47808 -14.91274,4.21206 -14.46013,3.46966 1.80731,-1.73569 75.01635,-60.47915 75.69293,-60.47915 0.22707,0 0.22707,1.48651 -0.45106,2.97473 z m 213.29678,11.15306 c 2.71254,-0.7441 4.74538,-0.7441 4.74538,-0.24746 0,3.96628 -41.80016,61.96565 -45.86743,63.70132 -2.71098,1.23904 -16.04348,6.44438 -29.37444,11.89717 l -24.62749,9.66656 18.75292,-19.33312 c 10.39445,-10.41066 30.05258,-30.48789 43.60906,-44.61567 16.26902,-16.85504 25.30562,-24.53845 26.43637,-22.5553 0.90366,1.73397 3.61464,2.2306 6.32563,1.4865 z m 20.33626,20.3247 -6.77822,22.30782 -17.17269,6.19692 c -9.48922,3.46965 -17.3982,6.1969 -17.62373,5.70026 -0.45261,-0.24747 7.90742,-13.13621 18.30188,-28.50304 15.13827,-22.06037 20.10919,-27.76234 24.40197,-27.76234 h 5.64904 z m 50.61283,-7.43596 6.32719,4.46123 -19.43261,7.43595 c -10.61997,4.21376 -18.98001,6.19691 -18.5274,4.7104 0.45106,-1.48821 2.71099,-8.67498 4.7454,-15.616 l 3.84017,-13.13622 8.36004,3.9663 c 4.51985,1.98144 11.07257,5.70027 14.68721,8.17834 z m 29.82549,150.70208 5.87462,13.13792 -5.64907,20.32469 c -6.77824,25.28255 -11.52214,50.31594 -15.1383,81.0513 -2.25999,19.82976 -4.06724,25.53002 -11.74915,39.41034 -4.74539,8.92416 -9.94182,19.33483 -11.07102,23.29942 -4.06726,12.64128 -6.32718,3.96628 -7.68346,-30.23872 -1.58179,-37.17974 1.35628,-74.8561 8.36004,-110.30016 4.7454,-23.54687 16.04352,-61.96736 21.91805,-74.35946 l 3.38918,-7.43595 2.93796,15.86347 c 1.80736,8.92246 5.64764,22.06038 8.81115,29.24715 z m -295.09135,0.24917 c 0.22551,14.37525 5.87458,42.88 12.65281,64.94037 4.51987,14.62442 5.19644,19.82805 3.38913,28.25557 -1.1292,5.4545 -3.1636,22.30784 -4.51832,36.93226 -4.29279,47.34294 2.71099,92.45354 21.23838,134.34367 5.64905,12.14464 10.61997,25.03339 11.52363,28.25558 l 1.5818,5.94944 -6.32563,-5.20533 c -18.75448,-14.62443 -38.41261,-43.37664 -49.25811,-71.88139 -6.77823,-17.59744 -7.23085,-20.32469 -2.48545,-20.32469 2.93806,0 3.38912,-5.20533 3.38912,-30.98283 v -30.98282 h -6.77824 c -5.87459,0 -7.00378,-1.23903 -9.49079,-10.65814 -1.80732,-6.1969 -2.93651,-23.79604 -2.93651,-43.87327 0,-36.68309 3.1636,-52.05162 17.62372,-87.49567 7.68347,-18.83819 10.16893,-18.09408 10.39446,2.72725 z m 483.76056,45.60725 c 2.93818,22.80277 11.74933,71.87968 16.72021,92.70101 2.93797,12.64127 2.93797,14.87189 -1.12928,27.76064 -2.48544,7.68341 -3.8416,15.36852 -3.38907,16.85503 0.67808,1.73568 -3.8417,8.92245 -9.71643,16.11094 -10.61983,12.88874 -10.84538,13.13791 -13.55638,7.68341 -10.84549,-22.55531 -14.91275,-79.81226 -8.1345,-118.72768 2.93654,-17.1025 14.46011,-62.70975 15.81638,-62.70975 0.4511,0 1.80736,9.17162 3.38907,20.3264 z m -642.82987,45.85472 3.16358,15.11936 -18.75447,75.35103 -18.98001,75.10357 -7.23084,-0.74411 c -9.48922,-1.23904 -76.82367,-35.19658 -76.82367,-38.91541 0,-9.41738 64.39639,-100.38441 100.54906,-142.27454 l 13.55648,-15.6143 0.67813,8.17834 c 0.45262,4.71041 2.25994,15.36854 3.84174,23.79606 z m 71.17462,-2.47979 c 0,1.24075 -2.93807,12.64128 -6.32719,25.53003 l -6.32719,23.54859 -15.36381,0.74239 c -8.58711,0.49664 -16.49454,-0.24747 -17.8508,-1.73397 -3.1636,-3.47136 0.22708,-21.31626 5.87458,-30.48789 5.87458,-9.66657 22.14359,-19.33313 32.53803,-19.33313 4.06726,0 7.45638,0.7424 7.45638,1.73398 z m 48.80549,34.94912 c 4.29277,6.1969 7.6819,12.14635 7.6819,13.13792 0,1.23904 -9.2637,2.23061 -20.5618,2.23061 h -20.5618 l 1.35627,-6.94101 c 0.90367,-3.71713 3.1636,-12.64128 4.97091,-19.82805 l 3.38913,-12.89046 7.90743,6.69355 c 4.51985,3.71712 11.52362,11.6497 15.81796,17.59744 z m -105.7455,13.63286 c 4.06725,10.41066 4.97091,17.8466 4.97091,38.41876 v 25.28256 h 7.45637 7.23085 l 0.45106,21.8129 c 0.22552,11.89718 2.48544,30.48789 4.97091,41.14603 4.51986,21.06709 3.61621,31.23029 -3.61464,31.23029 -2.0344,0 -14.00909,-6.69184 -26.66192,-14.87189 -12.42727,-8.18005 -25.75978,-15.86347 -29.59995,-17.34998 l -6.77825,-2.72724 16.94561,-67.9151 c 9.26369,-37.42719 17.62373,-68.16255 18.30186,-68.16255 0.90366,0 3.6162,5.94773 6.32719,13.13622 z m 428.85501,84.27518 c 5.19654,28.75222 14.68731,55.76875 29.37286,84.02602 7.00533,13.38369 12.42742,24.78593 11.97632,25.28257 -2.2599,2.23061 -25.30726,6.1969 -27.34006,4.95615 -3.16362,-2.2306 -15.81649,-32.22185 -24.40353,-57.99935 -9.71631,-29.00138 -18.5274,-69.15413 -16.94561,-76.59179 0.67814,-3.46964 5.64906,-15.86175 10.84551,-27.51146 l 9.26373,-21.0688 1.80726,24.29099 c 0.90363,13.38367 3.16362,33.46091 5.42352,44.61567 z m 169.23678,-8.18005 c 8.81258,4.95787 11.29802,7.43595 10.84549,11.64971 -0.4512,4.46123 0.67808,5.4528 6.77825,6.19691 11.9761,1.23903 9.94176,7.18848 -8.81116,25.03338 -9.71632,9.17162 -18.52901,16.60758 -19.88362,16.60758 -5.19644,0 -27.34007,-29.49633 -34.57095,-45.85472 l -7.45642,-17.35168 6.10016,-1.73397 c 13.1055,-3.46966 35.24902,-0.99158 46.99825,5.45279 z m -30.50369,51.30752 13.10539,14.37696 -5.87462,4.46123 c -7.90742,5.94944 -59.87644,33.95754 -61.00725,32.96596 -0.451,-0.49493 5.19807,-22.80276 12.20186,-49.57354 l 13.10528,-48.82943 7.68198,16.11263 c 4.2928,8.92245 13.55802,22.55531 20.78736,30.48619 z m -76.8221,16.11264 c -6.5528,22.05867 -12.65439,41.39349 -13.55802,42.63253 -2.93654,3.22218 -5.19654,-14.62443 -3.61473,-27.76064 2.71099,-20.07723 8.13451,-34.45418 17.62374,-46.35135 4.97088,-6.19692 9.49077,-10.9056 10.16742,-10.1632 0.45264,0.49664 -4.2928,19.33311 -10.61841,41.64266 z M 475.47384,650.51131 c -0.67814,1.73568 -5.42354,17.59915 -10.8455,35.44576 -5.19799,17.59744 -10.39444,33.21344 -11.2981,34.20501 -0.90366,1.23905 -5.64906,0 -10.61997,-2.72554 -7.45637,-4.21377 -9.26369,-6.69355 -11.74915,-17.59915 -2.71099,-12.14464 -2.71099,-13.13621 2.93806,-23.79435 7.2293,-13.38538 17.84927,-22.55701 29.8255,-25.7792 12.20022,-3.22218 12.87835,-3.22218 11.74916,0.24747 z m 38.18552,3.47136 c 4.06726,1.23904 5.64907,4.95617 8.81265,21.8112 2.71099,12.88875 8.36004,29.24885 16.04194,45.85643 l 11.74915,25.53002 -11.74915,-1.48822 c -6.55271,-0.7441 -22.14361,-3.96628 -34.57088,-6.69183 l -23.04726,-5.20534 5.42351,-19.08565 c 2.93653,-10.41067 8.13452,-28.50474 11.52364,-40.64938 5.87458,-21.56544 6.77824,-22.80448 15.8164,-20.07723 z m 49.9347,20.81963 23.49986,12.39381 -10.39443,12.88875 c -5.87459,7.18848 -12.20177,18.09408 -14.23463,24.29098 -2.03441,6.19691 -4.29277,12.14635 -5.19643,13.13621 -4.06727,4.95786 -29.37444,-59.48756 -29.37444,-74.60693 0,-5.20533 8.36003,-2.23061 35.70007,11.89718 z m 47.45078,27.51316 c 24.85457,16.60758 58.06914,44.12075 53.54936,44.61569 -1.12917,0 -14.00912,0.99157 -28.24373,2.23061 -14.2346,0.99157 -36.37821,1.48822 -49.03103,0.74411 l -23.04725,-1.48651 1.35628,-7.68341 c 2.03284,-11.89888 9.03816,-25.7792 19.20552,-37.67638 4.9709,-5.94943 9.48923,-10.9056 9.94182,-10.9056 0.67814,0 7.90744,4.46123 16.26903,10.16149 z"
     id="path4927"
     inkscape:connector-curvature="0"
     style="fill:#ffcf00;stroke:#000000;stroke-width:1.87527311" />
  <path
     d="m 636.3007,97.788576 c -3.1636,3.717124 -4.51831,7.930874 -3.84018,12.641274 l 0.90367,6.69184 -11.52364,-1.73568 c -19.65813,-3.22219 -46.54711,-1.73397 -65.52557,3.96629 -22.14358,6.44438 -38.63813,6.69184 -58.5218,0.49493 -8.36002,-2.47807 -15.13827,-3.46964 -15.13827,-2.2306 0,4.21375 6.32563,15.61599 11.97469,21.31626 2.93806,3.22389 10.39443,7.68512 16.26901,10.1632 l 11.07102,4.70869 -13.55648,4.21376 c -7.23085,2.23233 -16.72006,4.7104 -20.78733,5.4545 -11.07257,1.98145 -10.61996,4.46124 2.03286,9.16992 16.26902,5.70198 27.56556,4.95787 63.49272,-3.71711 24.40197,-5.94945 35.47455,-7.43595 49.25655,-6.69355 9.71631,0.24917 18.52896,1.73568 19.65814,2.97472 0.90366,0.99157 -4.29278,7.93258 -11.74915,15.36854 -9.94185,9.91402 -15.36536,13.38367 -20.33627,13.38367 -3.61465,0 -10.61998,0.74411 -15.13829,1.48821 l -8.58555,1.73398 v 14.1295 14.37524 l -51.51805,53.0432 c -28.24371,29.24885 -55.58374,56.26539 -61.0057,59.73674 -7.68345,5.4528 -9.49078,8.17835 -9.49078,14.12779 0,4.7087 1.58179,8.18005 4.51985,9.91402 4.06726,2.47979 3.61466,3.71883 -8.36002,21.81291 -14.91275,22.80278 -21.23994,36.18815 -32.53804,67.41845 l -8.36004,23.54858 -4.74539,-17.35167 c -6.32563,-23.54688 -9.26369,-45.35979 -9.26369,-70.39317 0,-20.57386 0,-20.82133 9.94184,-35.9407 30.27809,-46.10388 73.66008,-88.98388 101.22719,-99.64201 11.97468,-4.46123 17.62372,-10.1632 17.62372,-17.34998 0,-6.94101 -7.00531,-11.64971 -14.46168,-9.41909 -4.06726,0.99157 -109.13308,-19.82976 -111.39301,-22.30784 -0.4526,-0.24747 2.03286,-11.15478 5.19645,-24.04351 3.61464,-14.8719 7.90898,-25.53003 11.2981,-29.74379 6.77823,-7.93089 7.00376,-17.10251 0.22553,-24.04352 -11.29811,-11.64971 -28.24369,-0.99157 -25.53272,15.86346 l 1.35626,7.68513 -18.75446,2.973 c -10.16736,1.48822 -29.37289,6.19692 -42.25279,10.41067 -28.2437,9.17163 -54.22746,10.65813 -68.68917,3.9663 -11.07101,-5.20534 -10.39288,-5.45281 -10.39288,2.97472 0,9.41909 7.68191,19.58058 18.98,25.28255 l 9.03662,4.46123 -6.32564,1.73398 c -3.38911,0.74411 -14.23461,0.99157 -24.17644,0.49664 -9.71629,-0.74411 -17.85082,-0.24747 -17.85082,0.74411 0,4.46122 14.91275,20.57216 21.91807,23.54687 15.13828,6.93931 49.03103,2.47808 85.18215,-11.15478 15.13985,-5.94772 38.41261,-7.18847 37.05635,-2.2306 -0.67813,1.73567 -24.40197,21.81289 -52.87275,44.3682 -28.46923,22.80278 -54.45299,44.12075 -57.84367,47.59041 -7.00376,6.9393 -8.13295,14.62441 -3.16204,19.58058 2.71098,2.72726 2.48546,4.21375 -1.35626,9.91573 -14.68723,22.80278 -33.44015,83.28192 -33.44015,107.82036 0,10.41067 -1.13074,12.39382 -19.88367,34.94912 -37.73447,45.35979 -83.15085,107.82208 -96.256282,132.36053 l -6.10009,11.40224 -5.423527,-5.94944 c -6.551168,-7.18847 -15.363806,-7.68341 -21.463907,-0.99157 -9.941835,10.9073 -2.259932,27.2657 12.427288,27.2657 5.196441,0 17.849257,5.4528 37.507408,16.11094 l 29.37288,16.3601 -6.77825,8.67498 c -16.269,20.07723 -9.03816,38.66625 13.33096,34.45248 20.11075,-3.71712 51.06543,16.85504 82.92377,55.27382 50.61282,60.72831 78.631,87.99231 119.30199,115.50548 11.2981,7.68341 21.46546,14.62442 22.59621,15.86347 4.74382,4.21376 55.13113,29.99125 70.72201,36.18816 70.49648,27.76063 148.44933,32.96596 221.65835,14.87188 33.89275,-8.42751 58.74737,-18.09407 91.28375,-35.94068 18.07637,-10.16149 26.88896,-13.63115 27.34006,-11.64971 0.67818,1.73568 2.7111,8.92416 4.74544,15.86346 3.84016,13.63286 15.13819,34.45419 19.88374,36.43734 1.5817,0.49493 37.73281,-4.95787 80.66369,-12.14635 42.93099,-7.18847 78.6311,-13.13621 79.53474,-13.38368 4.2928,-0.24917 9.49076,-27.2657 9.49076,-48.3345 0,-21.56373 -0.45264,-23.05195 -9.94176,-43.12917 -12.20186,-25.53003 -30.05269,-46.34966 -48.12741,-56.01622 -11.75078,-6.1969 -12.65429,-7.18847 -10.16886,-11.40224 1.58171,-2.47807 9.49067,-14.37695 17.39809,-26.27412 17.17275,-26.27413 43.15654,-73.61536 52.19467,-95.9232 l 6.77978,-16.3601 h 12.4273 c 11.7491,0 12.4273,-0.24747 11.2965,-5.70027 -1.5817,-8.18006 -5.6489,-34.45418 -5.6489,-36.93226 0,-0.99158 4.2943,-1.98315 9.4907,-1.98315 h 9.2637 l -1.3562,-26.27413 -1.3548,-26.5216 39.7674,-83.28192 c 21.9165,-45.85471 42.0273,-86.00917 44.9637,-89.72799 9.2637,-10.65813 5.8745,-23.54688 -7.2308,-28.0081 -7.2294,-2.47808 -16.7201,6.9393 -16.7201,16.35839 0,4.21377 -2.26,11.40224 -4.7454,16.11264 -4.0658,6.93931 -5.8747,8.17835 -10.8456,7.18678 -23.2727,-5.45281 -104.84019,-19.08565 -107.1002,-18.09409 -2.93796,1.23904 -49.03093,90.96704 -49.03093,95.67573 0,1.48822 3.38906,2.72726 7.45631,2.72726 3.84029,0 27.56562,1.73568 52.42013,3.71883 24.85462,1.98143 47.90189,3.71711 51.29099,3.71711 5.8746,0 5.8746,0.24747 -12.2017,34.70165 l -18.30182,34.69995 h -52.42023 c -52.42011,0 -52.64721,0 -53.77649,5.4545 -0.90362,2.97302 -1.80726,4.95617 -2.48544,4.21377 -2.03281,-1.98315 -14.6872,-73.86453 -18.07626,-102.61674 l -3.38918,-27.26571 13.33094,-29.99125 c 27.11461,-61.47072 77.72737,-131.86389 97.15847,-135.83018 13.10539,-2.47979 22.59615,-10.1632 22.59615,-18.34155 0,-8.42751 -3.61626,-12.89045 -10.61994,-12.89045 -5.19643,0 -88.12024,-35.69151 -91.7365,-39.41034 -2.25989,-2.47809 8.36006,-43.12747 13.1055,-50.56341 4.74533,-7.68512 4.29281,-14.8719 -1.80737,-21.0688 -6.77823,-6.94101 -15.36538,-6.94101 -21.46544,0.24747 -5.19642,5.94943 -6.77823,17.59914 -2.71088,20.32469 5.19633,3.46964 1.5817,5.45279 -6.1017,3.46964 -15.36385,-3.96458 -50.16034,-2.72553 -69.59287,2.72726 -22.82016,6.19691 -44.2856,6.19691 -61.91088,0.24747 -7.68187,-2.47809 -13.78204,-4.21376 -13.78204,-3.71712 0,0.74239 1.35462,4.70869 3.16352,9.16992 4.51836,11.64971 14.46023,20.57387 27.11297,24.53845 l 10.8455,3.47136 -16.49292,5.20533 c -9.26522,2.97301 -19.65819,6.1952 -23.49989,6.93931 l -6.77824,1.98315 7.90742,3.71882 c 14.91439,7.18678 35.24912,6.69185 69.5944,-1.73568 30.05094,-7.18848 51.51649,-9.17163 63.26561,-5.70026 4.51836,1.4865 -4.51989,9.91402 -64.39643,60.22996 -38.411,32.22358 -74.78919,62.21483 -80.89089,66.67606 -14.00748,10.1632 -18.97847,16.85503 -19.20544,25.03508 0,6.69185 6.1017,14.62443 11.07258,14.62443 1.80725,0 1.12907,2.47809 -1.8089,6.93931 -5.87462,9.17162 -25.08018,51.06005 -25.08018,54.77888 0,1.4865 -0.90362,2.72555 -2.03279,2.72555 -3.61627,0 -11.07259,-23.29942 -13.78358,-42.63254 l -2.48543,-19.33311 11.52368,-21.31627 c 12.42719,-23.29941 35.47445,-56.76203 48.35275,-70.1457 9.71643,-10.41067 10.3945,-16.60758 2.03445,-20.57388 -8.58714,-3.96458 -84.50557,-61.96564 -85.86185,-65.18782 -1.35471,-4.46124 9.71629,-39.90699 14.91272,-47.34294 5.87461,-8.42752 6.10171,-16.85504 0.22566,-23.299404 -6.10019,-6.691836 -16.72017,-6.444369 -22.59474,0.49664 z m 18.07639,5.700264 c 4.29269,5.70026 0.67807,14.12779 -6.10015,13.13621 -7.68346,-0.98986 -11.52364,-7.68342 -7.68346,-12.88875 3.84173,-4.95615 10.16891,-5.205323 13.78361,-0.24746 z m 248.54586,7.43594 c 3.16351,4.21376 1.13059,12.64128 -3.61473,14.62443 -4.97088,1.98315 -12.20187,-2.72726 -12.20187,-7.93258 0,-9.41909 10.3945,-13.88033 15.8166,-6.69185 z m -273.85311,14.12779 c 7.68346,1.48822 14.46171,3.47136 15.13984,4.46293 0.45105,0.99157 -1.13074,8.67499 -3.6162,17.10251 -3.84018,12.39211 -5.42197,15.11935 -8.58556,13.63286 -2.03285,-0.99158 -9.71631,-3.22219 -17.17268,-4.95788 -15.59088,-3.96629 -30.72917,-2.23061 -70.04387,7.68341 -13.55805,3.22219 -28.92185,6.19692 -33.89276,5.94945 l -9.03817,-0.24747 6.77824,-2.47979 c 22.36912,-8.18005 30.50363,-12.64128 30.50363,-17.1025 0,-3.96629 -1.80732,-4.7087 -10.61997,-4.7087 -11.97467,0 -26.88742,-6.44436 -32.31096,-13.63285 -3.16357,-4.21375 -2.93806,-4.46122 1.1292,-2.72725 9.94183,4.46122 40.44546,4.7104 55.35821,0.24747 27.1145,-7.93089 46.77265,-8.92246 76.37105,-3.22219 z m -226.8548,7.43594 c 2.93807,5.20534 -0.45106,12.64129 -5.87457,13.88033 -3.61466,0.7441 -10.8455,-5.70028 -10.8455,-9.41739 0,-3.71883 7.23084,-10.1632 10.8455,-9.41909 1.80886,0.49493 4.51986,2.72554 5.87457,4.95615 z m 474.94955,4.71041 c 7.23077,1.73397 14.23456,3.71711 15.1383,4.70869 2.03445,1.98314 -4.7438,32.22357 -7.22923,32.22357 -0.6783,0 -6.32726,-1.73568 -12.42743,-3.71882 -16.72164,-5.70027 -37.05627,-4.46123 -70.72357,3.71882 -16.49446,3.96459 -34.57083,7.43594 -39.76726,7.18677 h -9.48912 l 13.55637,-5.70026 c 21.2399,-8.92246 21.69099,-9.4191 21.01291,-13.63286 -0.45109,-2.72554 -4.2928,-4.46122 -13.10395,-5.45279 -12.4272,-1.48651 -25.5327,-7.18848 -28.24358,-12.39382 -1.13082,-1.73397 1.58017,-1.98144 9.26368,-0.49493 16.04193,2.72555 33.66567,1.48651 52.87265,-3.9663 19.4311,-5.45279 49.2566,-6.69184 69.14023,-2.47807 z m -487.14976,23.2994 c 0,0.7424 -2.0344,10.65814 -4.74539,22.06038 l -4.74538,20.57215 -19.43107,-1.23904 c -17.3982,-0.99156 -22.1436,-0.24745 -41.12359,6.44438 -41.1236,14.37525 -67.10736,16.60757 -80.66384,6.44437 l -6.32718,-4.70869 18.07634,-1.48821 c 9.94182,-0.74411 23.4983,-3.22219 30.27654,-5.70027 l 12.42729,-4.7104 -18.5274,-6.44438 c -16.49453,-5.94772 -28.01817,-13.1362 -25.0801,-15.86346 0.45105,-0.49493 8.13451,0.24918 16.72006,1.48822 17.17268,2.72555 23.04727,1.73397 67.7855,-11.64971 18.5274,-5.70197 55.35822,-8.92416 55.35822,-5.20534 z m 243.34936,12.14464 c -0.67812,1.98315 -2.48546,7.9326 -4.06725,13.63286 -1.58181,5.70026 -4.06726,10.1632 -5.64905,10.1632 -2.93808,0 -2.25994,-2.72726 4.74538,-24.29099 0.45105,-1.4882 2.03284,-2.97471 3.61465,-2.97471 1.35627,0 2.03284,1.48651 1.35627,3.46964 z m 42.92933,31.47947 c 19.65818,14.8719 35.92709,28.25728 36.3783,29.24714 0.67808,1.98315 -58.29473,25.7792 -59.87657,24.04352 -0.45106,-0.49493 2.93799,-9.41909 7.6819,-20.07722 l 8.58714,-19.08565 -5.19797,-4.46123 c -2.71099,-2.47807 -9.94187,-6.44437 -15.81647,-8.92245 -5.87458,-2.23062 -11.52362,-5.20533 -12.42728,-5.94944 -1.58181,-1.48651 2.48545,-22.30784 4.29433,-22.30784 0.45105,0 16.72007,12.39381 36.37662,27.51317 z m 206.29469,-19.08565 c 0,1.98315 -2.03445,10.41066 -4.29445,19.08565 -2.48543,8.67498 -6.55269,23.79435 -9.03823,33.46091 -3.61452,13.38538 -5.87452,18.09578 -9.48913,19.08565 -3.16363,0.99157 -4.29281,0.24917 -3.61462,-1.73398 0.67654,-1.73567 5.42198,-18.09408 10.6183,-36.43733 5.19807,-18.34154 9.94198,-33.95754 10.62006,-35.19658 1.58181,-2.97472 5.19807,-1.98315 5.19807,1.73568 z m 83.60189,33.95755 c 0,1.4865 -90.60733,32.7185 -91.7365,31.23029 -0.67808,-0.7424 12.4273,-52.79403 15.81648,-62.95723 0.90352,-1.98315 13.10539,2.23062 38.411,13.63286 20.56182,9.17162 37.50902,17.1025 37.50902,18.09408 z M 614.60972,192.47272 c -0.67815,2.23062 -2.25993,3.22219 -3.61465,2.47808 -1.13074,-0.7424 -0.90367,-2.97472 0.67658,-4.95615 3.39066,-4.46294 4.97092,-3.22219 2.93807,2.47807 z m 242.89668,32.71851 c -4.97088,17.59744 -10.39276,33.21344 -11.74912,34.70165 -2.48544,2.47808 -27.33995,11.15307 -80.21282,28.50304 -11.74911,3.71883 -20.5617,6.19691 -19.88363,5.45451 2.93808,-3.2239 119.98018,-101.62518 120.43271,-101.13024 0.4511,0 -3.61626,14.62443 -8.58714,32.47104 z m -259.61676,-10.1632 c -1.80732,18.34154 -4.51987,20.07722 -4.51987,2.97472 0,-10.9056 -0.67813,-14.12779 -3.3891,-14.12779 -2.48547,0 -2.16662,3.02251 -2.61923,13.68064 l -1.67357,14.82411 -2.71408,-8.3712 c -0.67813,-6.69355 0.003,-17.65547 -1.35316,-19.39115 -1.80734,-2.47808 -0.22553,-3.22218 7.6819,-3.22218 h 9.94183 z m 11.97469,-11.89718 c 0.45261,1.23905 -0.45106,8.675 -1.80734,16.85505 l -2.71098,14.87189 -0.90365,-16.85504 c -0.67815,-11.64971 -0.22709,-16.60757 1.80731,-16.60757 1.35627,0 2.93653,0.7441 3.61466,1.73567 z m -32.31096,15.61601 c 0,8.17834 -0.90367,14.87188 -2.25993,14.87188 -1.35472,0 -2.25838,-6.69354 -2.25838,-14.87188 0,-8.18005 0.90366,-14.8719 2.25838,-14.8719 1.35626,0 2.25993,6.69185 2.25993,14.8719 z m 45.6419,-10.65813 c -1.35472,2.47808 -2.93651,9.16991 -3.84016,14.87188 -0.90367,5.94774 -2.48547,10.65813 -3.84175,10.65813 -1.35625,0 -1.80731,-2.97471 -0.90364,-7.68511 0.67813,-4.21205 1.35626,-10.9056 1.35626,-14.87189 0,-5.4528 1.12919,-7.18678 4.51831,-7.18678 3.84173,0 4.29277,0.99158 2.71098,4.21377 z m 26.21086,5.70026 c 5.1965,2.47808 9.48931,5.94944 9.48931,7.43595 0,1.4865 -2.7111,8.42752 -5.87466,15.36853 -3.84019,8.42581 -6.55273,11.6497 -8.13296,9.91402 -1.35627,-1.48821 -0.67814,-5.70026 2.48546,-12.39381 2.71097,-5.70026 4.74382,-11.89716 4.74382,-14.12778 0,-7.43595 -4.74382,-3.46966 -9.48921,7.93088 -6.32719,14.62443 -6.10166,14.12949 -7.45638,12.64128 -0.67814,-0.7424 0.45106,-5.94774 2.25992,-11.89718 4.06571,-12.88874 4.29279,-17.34996 0.45106,-17.34996 -1.58179,0 -4.97091,6.44436 -7.23083,14.12777 -4.74384,15.86348 -7.2293,12.88875 -3.61465,-4.21375 1.12917,-5.94944 1.58179,-11.89717 0.90366,-13.13621 -1.80734,-3.22219 9.03817,-0.24918 21.46546,5.70026 z m -272.94933,1.98315 c 0,8.18005 -11.07103,48.3328 -14.00909,50.31594 -4.5183,3.22219 -4.74383,0.99157 -0.90366,-13.63285 2.03441,-7.68342 5.198,-20.07552 7.23084,-27.51147 3.38913,-13.13791 7.68191,-18.34325 7.68191,-9.17162 z m 53.09829,4.21376 c 22.37066,4.95786 42.25433,9.41909 44.06165,10.41067 1.80732,0.7424 -19.43261,8.17834 -47.45078,16.85503 -28.01663,8.42752 -51.29095,15.11936 -51.74201,14.62272 -0.45261,-0.49493 0.67813,-7.18678 2.71098,-15.11936 2.03441,-7.93088 4.7454,-19.08565 6.10167,-25.03338 1.3547,-5.70198 3.16203,-10.41066 4.06569,-10.41066 0.90522,0 19.88367,3.96458 42.2528,8.67498 z m 561.48951,7.18848 c 0,5.20533 -5.19797,8.92245 -19.65819,13.63285 -7.23076,2.47808 -43.60895,16.3584 -80.89089,30.98283 -37.28192,14.62442 -89.02386,34.94911 -115.00919,45.1106 -35.47445,13.88032 -49.48368,18.34326 -56.48747,17.84662 -6.77825,-0.49493 -9.48913,-1.98315 -9.94176,-5.20534 -1.58181,-8.92245 8.5856,-16.35839 34.34527,-25.28255 108.45507,-37.67467 236.34421,-80.3072 241.54053,-80.3072 3.61626,-0.24918 6.1017,0.99157 6.1017,3.22219 z m -635.37513,20.57215 c -2.48546,10.65814 -5.42196,20.07723 -6.1001,21.0688 -1.35627,1.73569 -21.01285,8.18005 -57.61815,19.08565 -4.97091,1.48651 -7.90743,1.48651 -6.77823,0.49494 3.16358,-3.22219 73.43454,-59.73504 74.33821,-59.73504 0.45105,0 -1.35627,8.67499 -3.84173,19.08565 z m 151.84002,-11.6497 c 0,3.96629 -7.45637,6.94102 -75.92001,29.49631 -145.96389,47.83787 -170.36741,55.27382 -173.75653,54.03478 -2.71099,-1.23905 -2.93651,-2.72726 -0.67814,-7.68341 2.71254,-6.94101 3.84173,-7.43595 54.90717,-22.30784 16.26745,-4.7104 62.36197,-18.59072 102.80743,-30.98454 91.28381,-27.76063 88.79834,-27.01652 91.05829,-25.77748 0.90366,0.49492 1.58179,1.98314 1.58179,3.22218 z m 67.55843,5.70027 c 4.06724,-0.98987 0.4526,5.4545 -16.49454,30.73536 l -21.691,32.22357 -28.6963,11.40224 c -15.81642,6.1952 -28.92029,11.15306 -29.3729,10.90559 -0.22553,-0.49663 18.98,-20.32469 42.70541,-44.61567 30.72915,-31.232 43.83301,-43.37664 45.6419,-41.64096 1.5818,1.48651 4.97092,1.73398 7.90743,0.98987 z m 18.07633,21.31797 -6.77823,22.05866 -16.94716,6.69355 c -9.26369,3.71711 -17.39822,6.44437 -17.62373,5.94773 -0.45106,-0.49493 7.45638,-13.38367 17.62373,-28.75221 15.36536,-23.29941 19.20709,-27.76063 24.40353,-28.0081 h 6.10011 z m 19.43261,-19.08566 c -8.58711,30.73536 -10.84705,36.6831 -14.00907,36.6831 -1.8089,0 -2.93807,-1.48651 -2.48547,-3.22219 0.67657,-1.48651 3.38912,-10.41067 6.1001,-19.82976 3.16359,-9.91403 6.32719,-16.60586 8.36003,-16.60586 1.58181,0 2.71099,1.48651 2.03441,2.97471 z m 115.23469,-0.7441 c -1.35616,1.23903 -28.69621,13.63285 -61.00727,27.51317 -32.31091,13.88032 -88.7983,38.1713 -125.40204,53.7856 -36.60528,15.86346 -70.27096,29.74549 -74.56374,30.73536 -9.26525,2.47979 -15.81795,0.74411 -15.81795,-3.71713 0,-4.21375 8.81263,-8.18005 79.08359,-35.94068 31.63281,-12.39382 86.53843,-34.20501 122.01296,-48.3328 57.84362,-23.29942 82.02005,-30.73536 75.69445,-24.04352 z m -84.05449,12.39381 6.32719,4.46123 -18.75446,7.43594 c -10.39288,4.21377 -18.98,7.43595 -19.20553,7.18848 -0.45261,-0.49663 0.90365,-6.1969 2.93805,-12.89045 2.03286,-6.69184 3.84018,-13.63115 4.51832,-15.36683 0.90366,-3.46964 11.97467,0.74411 24.17643,9.17163 z m 296.22215,13.13621 c -68.46369,78.82069 -117.0421,213.41184 -107.32732,296.94291 1.35626,11.89718 4.51978,28.00812 7.00522,35.9407 2.48554,7.93088 4.51835,14.62443 4.51835,15.11936 0,0.24747 -4.97088,-1.73568 -10.84549,-4.70869 l -10.84539,-5.4545 -10.16742,-37.67468 c -5.42352,-20.57386 -10.16896,-37.17972 -10.62005,-36.68479 -0.67808,0.74411 9.48934,57.25695 12.20187,68.65919 0.90362,3.71883 -0.22709,4.46123 -6.77979,4.46123 -8.81115,0 -6.77824,4.95787 -21.01291,-50.5634 -3.38907,-13.38539 -6.55269,-23.29942 -6.77825,-22.06038 -0.45263,1.23904 2.2599,17.84661 5.87463,36.93226 3.61472,18.83648 6.55269,34.45248 6.32713,34.94912 -0.22697,0.24747 -3.16362,0.98987 -6.32713,1.98145 -5.87463,1.4882 -5.87463,1.24073 -15.59094,-35.93899 -5.42187,-20.3264 -9.94176,-36.93226 -10.39286,-36.43733 -0.67808,0.7441 8.36006,56.01791 11.52368,70.39487 0.90363,3.96458 -0.2272,6.1952 -3.61626,8.42581 -6.32561,3.71883 -6.77824,2.97473 -15.59083,-31.72522 -4.06725,-15.36854 -7.90753,-27.51317 -8.36005,-27.01824 -0.67808,0.49665 1.58181,15.36853 4.74532,32.96597 l 6.10017,31.72693 -5.19642,4.46123 c -5.87463,5.4528 -6.10017,5.20533 -13.1054,-22.30784 -2.93653,-11.40224 -5.64917,-20.07722 -6.10016,-19.58058 -0.45264,0.49493 0.67819,10.9056 2.48544,22.80277 4.51835,28.00981 4.51835,29.99296 -0.67808,33.21515 -4.06725,2.2306 -4.74544,1.23903 -8.36006,-12.39382 -4.74543,-19.08565 -6.5528,-17.59915 -2.93807,2.47808 2.03445,12.14634 2.03445,16.36011 -0.22555,21.31626 -4.06726,8.18006 -5.87461,7.43595 -8.5855,-3.46965 -2.25999,-8.67498 -2.25999,-8.18005 -1.35637,4.46122 1.12929,15.12107 -1.80726,23.79606 -6.10006,17.35169 -1.80736,-2.72726 -2.03433,-1.73568 -1.13071,4.95615 0.67808,4.71041 0,15.36854 -1.58181,23.54859 l -2.93654,14.62273 -8.1344,-18.34156 c -18.75456,-42.1376 -25.08028,-74.35946 -25.30571,-128.89086 0,-31.9744 1.12917,-47.34123 4.97099,-69.89654 13.33082,-78.57322 46.99649,-155.65994 67.78385,-155.65994 2.03445,0 2.48555,1.73568 1.58181,5.45281 -1.12918,4.70868 -0.67665,4.21376 3.16363,-1.73568 2.48544,-3.96459 6.5527,-8.17835 9.26368,-9.16992 4.51989,-1.73568 4.51989,-1.73568 0.90363,5.70026 -1.80726,4.21376 -2.93655,8.18006 -2.25847,8.92417 0.45121,0.74239 2.7111,-2.23232 4.51836,-6.19692 8.36006,-17.59914 16.72011,-20.57386 10.16742,-3.71881 -5.19643,13.63284 -4.29281,12.88873 5.64895,-3.22219 3.84181,-6.44438 9.26369,-12.64129 11.97633,-13.63286 4.97088,-1.98315 4.74389,-1.23904 -2.71264,15.12107 -4.2927,9.66656 -7.68176,17.34997 -7.00369,17.34997 0.45264,0 6.10006,-8.92416 12.42732,-19.58229 6.55269,-10.65813 13.78357,-20.07552 16.04192,-20.81963 3.61626,-0.99157 2.93796,1.73398 -4.7438,18.34155 -4.74543,10.65813 -8.36016,19.58229 -7.90906,19.58229 0.45264,0 6.10017,-8.92416 12.65286,-20.07723 10.84549,-18.09407 18.5289,-27.01823 23.04725,-27.01823 0.90374,0 -3.61462,9.66656 -9.71631,21.56373 -21.23836,40.40362 -20.56017,40.89856 3.61626,1.98315 9.71621,-15.6143 19.20544,-28.50475 20.78725,-28.50475 2.71099,0 2.26,1.73568 -1.12907,7.93258 -14.46175,26.76907 -27.34016,51.5567 -26.43643,51.5567 0.45099,0 10.16732,-14.8719 21.46533,-33.21515 12.65297,-20.07722 22.59473,-33.71008 25.53127,-34.69994 2.71253,-0.74411 4.97088,-0.99158 5.42352,-0.74411 0.22555,0.49493 -7.90906,15.11936 -18.07637,32.96597 -30.27649,51.80416 -29.14731,51.55669 5.19643,-0.99157 20.11071,-30.73536 30.05258,-42.63253 32.76357,-39.65781 0.45263,0.49493 -7.45632,14.62271 -17.17264,31.72693 -21.01281,35.93898 -23.49835,40.64938 -20.78736,38.9137 0.90362,-0.74411 12.42742,-18.09407 25.53269,-38.66623 17.39819,-27.26571 25.5328,-37.92385 30.27814,-39.90699 3.61472,-1.23904 7.00379,-1.98314 7.68187,-1.4865 0.45109,0.7424 -11.97621,21.8112 -27.5655,47.09375 -15.81802,25.28256 -28.24534,46.10389 -27.56715,46.10389 0.45264,0 16.26901,-22.55701 35.02346,-50.31764 l 33.89122,-50.31596 14.23621,-5.20533 c 7.90731,-2.97472 14.68556,-5.45279 15.1383,-5.45279 0.45099,-0.24917 -5.19654,6.69184 -12.42731,15.11935 z m -239.7347,7.43595 c -36.37819,50.31595 -62.58753,114.51391 -74.56378,183.66805 -5.64749,33.21343 -5.64749,115.25802 0.22709,149.21555 5.19642,30.98283 16.72007,72.87125 27.11296,99.64203 4.29427,11.40053 7.45637,20.57216 7.00526,20.57216 -2.03434,0 -22.59461,-17.84662 -23.95087,-20.82133 -0.90366,-1.48651 -9.94184,-34.69995 -20.33627,-73.86283 -10.39289,-39.16287 -19.20552,-70.8898 -19.65658,-70.39487 -0.22708,0.49664 6.32563,31.72693 14.91275,69.4033 8.58556,37.67466 15.13826,68.41002 14.68566,68.41002 -0.67657,0 -3.84018,-1.73397 -7.22929,-3.96458 -5.42353,-3.47137 -7.90899,-10.41067 -22.82172,-65.68448 -9.2637,-33.71008 -16.94561,-61.22325 -17.39822,-60.72832 -0.4526,0.24918 4.97092,26.02666 11.74917,56.76202 6.77822,30.98283 12.42728,56.76032 12.42728,57.50443 0,0.74411 -2.93651,-0.24747 -6.55271,-2.47808 -7.22929,-3.96629 -7.22929,-3.71882 -26.43638,-76.09515 -4.74384,-17.59914 -8.8111,-31.23029 -9.26369,-30.73536 -0.45106,0.49664 3.61619,21.81291 9.26369,47.59041 5.42352,25.77748 9.7163,47.09375 9.49078,47.59039 -0.45261,0.24747 -4.06726,-0.99157 -8.36004,-2.97471 -7.68344,-3.46966 -7.90899,-3.9663 -18.75447,-47.09376 -6.10012,-24.04353 -11.52364,-43.12918 -11.97469,-42.63424 -0.45259,0.24917 2.71099,18.83818 7.00378,40.65109 7.90897,41.39349 7.6819,43.12746 -2.711,36.68309 -4.06724,-2.47808 -7.45637,-9.91402 -14.00908,-31.47775 -9.7163,-31.72694 -11.07102,-31.47947 -4.51987,1.23904 2.48546,12.14464 4.06726,22.5553 3.61621,23.05193 -0.4526,0.49494 -4.29279,0 -8.36003,-0.99156 -7.00532,-1.98315 -8.36004,-3.9663 -14.00909,-20.82133 -3.38912,-10.41067 -5.64906,-14.62443 -4.97092,-9.66657 0.90366,4.7087 2.03285,12.39381 2.71098,16.60758 1.12919,7.43594 0.67814,8.17834 -4.06724,8.17834 -7.68192,0 -9.71632,-2.23061 -15.36382,-14.87189 -4.51986,-10.65813 -4.74537,-9.91403 -1.58179,5.4528 1.35471,6.44437 0.90367,6.94101 -6.32719,6.94101 -5.42196,0 -8.13449,-1.23904 -8.81264,-4.46122 -0.90366,-3.22219 -1.12919,-3.22219 -1.35471,0.99157 -0.22553,6.1969 -11.52363,9.91403 -14.23462,5.20533 -1.13073,-1.98315 -1.80886,-1.73568 -1.80886,0.7424 0,1.98315 -3.38912,6.19691 -7.45639,9.17163 -4.06726,3.22219 -9.94183,10.16149 -12.87833,15.616 -3.1636,5.45279 -6.55273,9.91403 -7.45637,9.91403 -2.711,0 -14.68723,-30.98283 -19.88368,-51.80416 -6.77823,-27.26571 -8.36002,-78.57323 -3.1636,-111.78666 7.23085,-48.08704 25.98378,-96.6673 50.16178,-131.12149 11.74915,-16.60586 14.68566,-19.08565 28.92183,-25.53002 8.58556,-3.9663 16.94559,-6.44438 18.52739,-5.94945 1.5818,0.74411 2.93651,0.24918 2.93651,-1.23904 0,-2.23061 9.26525,-7.43594 10.84705,-5.94773 0.22554,0.24747 -0.45259,3.71712 -1.80887,7.68341 l -2.25838,7.18848 4.06725,-5.94943 c 11.07102,-17.34997 16.49299,-20.3247 11.74916,-6.44437 -3.84172,10.9056 -0.90365,10.1632 4.29277,-0.99158 2.711,-5.4528 6.77825,-11.15306 9.26371,-12.64128 4.29278,-2.47808 4.29278,-2.47808 -0.22553,8.92416 -6.32718,16.35839 -3.84173,16.11094 4.51831,0 3.84173,-7.43594 9.03818,-14.8719 11.52363,-16.3601 5.87459,-3.46966 5.87459,-2.97472 -2.25994,17.59914 -3.61463,9.41909 -6.10009,17.1025 -5.64748,17.1025 0.45106,0 5.87457,-9.41909 12.2002,-20.82133 6.32718,-11.40053 13.10542,-21.31627 14.91275,-22.30784 4.51986,-1.73396 4.51986,-1.98314 -5.42197,22.06037 -4.97091,11.64971 -8.58711,21.0688 -8.36003,21.0688 0.45106,0 6.10009,-9.66656 12.87833,-21.56373 6.55272,-11.89887 13.78357,-23.54858 16.04349,-26.02666 9.48924,-10.41067 8.13296,-2.72726 -3.6162,21.56373 -7.00376,14.37696 -12.2002,26.02666 -11.74915,26.02666 0.45262,0 8.81265,-13.38538 18.30188,-29.74378 15.13982,-25.77749 21.46545,-33.95755 21.46545,-28.25728 0,0.99158 -6.10011,14.37696 -13.78201,29.74379 -7.45636,15.616 -13.10542,28.25727 -12.65437,28.25727 0.67813,0 9.49078,-14.62442 19.65814,-32.47104 15.81641,-27.51316 25.30719,-39.16287 28.92183,-35.69151 0.67814,0.7424 -19.88366,40.40192 -35.24903,68.16255 -9.03815,16.11094 3.38913,-2.47807 24.17801,-36.43562 19.88366,-32.22357 28.01662,-42.8817 30.95466,-39.90698 0.22555,0.49493 -6.55268,14.12778 -15.36533,30.48789 -25.98376,49.0769 -26.88743,50.81258 -25.75823,50.81258 0.4526,0 12.65437,-19.82975 26.88898,-44.12074 21.23838,-35.69323 27.56551,-44.61568 33.44014,-46.84629 4.06724,-1.73568 7.68186,-2.97472 7.90895,-2.47979 0.22555,0.24918 -7.90895,15.12106 -18.07638,32.71851 -32.53641,56.76202 -37.50732,65.68447 -36.60366,65.68447 0.45106,0 15.58932,-23.29941 33.44015,-52.05163 26.43643,-42.38506 33.6672,-52.54655 40.21989,-55.52127 14.00759,-6.44437 14.00759,-4.46123 0.67665,13.88032 z m -245.8333,-4.95786 c -37.28343,33.71008 -70.94909,80.06143 -90.60723,124.67711 -15.59088,35.44404 -21.91651,63.45386 -21.91651,98.65044 0,22.06037 -0.45261,26.02496 -2.93808,23.79435 -1.80731,-1.48651 -3.16357,-7.93088 -3.3891,-14.37526 0,-6.1969 -0.90368,-17.1025 -2.03285,-23.79604 -1.58181,-11.89718 -1.58181,-11.89718 -2.0344,6.69354 0,10.65813 -0.67815,19.33312 -1.12921,19.33312 -7.00532,0 -8.1345,-3.71882 -8.36002,-27.01824 -0.22709,-20.07722 -0.67814,-22.06037 -2.25994,-12.64128 -0.90365,6.1969 -1.80732,15.86347 -1.80732,21.56544 -0.22707,7.93088 -0.90366,10.16149 -3.38912,9.16992 -2.0344,-0.99157 -3.6162,-8.92245 -4.97092,-26.52159 l -2.0344,-25.28086 -0.67815,22.80277 c -0.22551,12.64129 -0.90365,23.05195 -1.58179,23.05195 -6.10009,0 -7.90742,-4.21376 -8.13294,-18.34326 -0.22709,-21.56373 -3.84174,-32.22185 -4.06726,-12.63956 -0.45261,18.58901 -2.0344,26.02495 -6.10166,26.02495 -2.25837,0 -3.16359,-3.22219 -3.38911,-10.65813 0,-5.70026 -0.90367,-14.87189 -1.80733,-20.32469 -1.80732,-8.42752 -2.03285,-6.94101 -2.25994,10.41066 -0.22551,15.86347 -0.90366,20.57216 -3.38911,20.57216 -3.84018,0 -5.64906,-7.43594 -6.1001,-24.78591 -0.45262,-13.38539 -0.45262,-13.38539 -2.25994,4.95615 -2.25993,21.0688 -3.16359,24.78763 -6.55271,24.78763 -1.12918,0 -2.25993,-5.70198 -2.25993,-13.13792 0,-9.16992 -0.67658,-11.89717 -2.25838,-9.16992 -1.13075,1.98315 -2.25993,9.41909 -2.25993,16.60586 0,6.94102 -0.90367,13.63286 -2.25993,14.37697 -1.35472,0.99157 -2.25838,-1.73569 -2.25838,-6.69185 0,-6.1969 -0.67814,-7.18848 -2.25993,-4.46293 -1.13074,1.98315 -2.25993,6.69354 -2.25993,10.41067 0,9.91573 -2.48546,15.61599 -4.74539,11.40224 -1.35471,-1.98315 -2.03285,0.49493 -2.03285,7.18848 0,5.94773 -0.90365,10.65813 -1.80732,10.65813 -4.97091,0 -12.20176,-36.43733 -13.33096,-65.68448 -0.90365,-26.27413 -0.45259,-32.7185 4.74384,-54.03476 5.87457,-25.53003 22.1436,-65.43702 31.18177,-76.59008 2.71098,-3.47137 7.68191,-7.18848 10.61997,-8.18005 4.74538,-1.48651 5.19643,-1.23904 3.84017,2.72724 -1.1292,3.46966 0,2.97302 4.74538,-2.23231 7.6819,-7.68342 14.4617,-9.66656 9.49079,-2.47808 -1.80889,2.72725 -0.67814,2.23061 2.48545,-0.99158 6.55272,-6.1969 18.07635,-11.6497 18.07635,-8.17834 0,1.23904 -0.90522,2.97302 -2.25994,3.71711 -1.13075,0.74411 -3.38912,3.9663 -4.74538,6.94102 -1.5818,3.22218 2.25992,0.49494 8.81264,-6.44608 16.94559,-17.34997 20.10919,-16.11093 7.45637,3.22389 -4.29278,6.69184 -2.71255,5.70028 7.90743,-5.20532 11.97624,-12.64129 21.23994,-19.33484 21.23994,-15.61601 0,0.99158 -3.84173,6.69184 -8.58556,13.13622 -15.81797,21.0688 -14.68723,21.31626 3.61463,0.7441 10.16735,-11.15477 19.43106,-20.32469 20.78733,-20.32469 3.16358,0 2.03285,2.23062 -13.10542,23.54687 l -11.97468,17.34998 19.88366,-22.80277 c 16.94558,-19.33312 30.05102,-29.99125 30.05102,-24.29099 0,0.74411 -8.13451,11.89717 -18.07635,24.53846 -9.94181,12.88874 -18.07633,23.79605 -18.07633,24.53845 0,0.74411 8.36003,-8.42753 18.52895,-20.07722 28.46922,-33.21344 29.59842,-34.69995 35.47454,-36.43563 4.29279,-1.48651 2.48546,2.23061 -9.26524,17.59914 -27.11296,36.43563 -32.53649,45.11061 -15.13827,24.53845 32.98908,-39.16287 41.57464,-48.08703 48.35289,-49.821 6.32717,-1.73569 6.5527,-1.73569 3.39066,3.22218 -1.80887,2.97472 -14.46169,19.58059 -28.01817,37.17973 -42.25278,54.52971 -41.1236,53.78731 7.45636,-4.21376 31.4073,-37.67637 40.89653,-46.35135 51.06389,-46.84629 1.35627,-0.24917 -2.71099,4.46122 -9.03662,10.1615 z m 652.99729,79.06985 c 3.1637,10.41067 -10.1674,16.35841 -13.7835,5.94774 -2.2584,-6.1952 0.9053,-11.15306 6.7798,-11.15306 3.6145,0 6.0999,1.73568 7.0037,5.20532 z m -433.60042,54.77718 6.32714,14.12949 -6.10005,21.81119 c -7.68341,27.51318 -12.20177,51.80417 -15.13973,80.80385 -2.03292,17.8466 -3.84028,25.03508 -9.0367,33.95753 -3.39069,6.19692 -8.81265,16.36011 -11.52364,22.80448 -2.93807,6.69185 -5.87458,11.89718 -6.7798,11.89718 -2.71098,0 -4.97091,-47.34122 -3.61463,-78.07658 2.25993,-48.33451 11.2981,-93.69429 26.88895,-134.84031 l 7.22934,-18.83649 2.71253,16.11094 c 1.35471,8.92245 5.42197,22.55531 9.03659,30.23872 z m 353.16222,-28.99968 c 32.762,5.94944 59.8765,11.40224 60.5546,11.89717 0.9037,1.23904 -29.8255,65.93194 -32.5366,68.90666 -1.3561,1.23904 -107.10167,-5.4528 -126.53277,-8.17834 -4.2928,-0.74411 -3.16352,-3.9663 14.6873,-39.16288 19.88353,-38.66795 23.04727,-44.61568 23.72381,-44.61568 0.22697,0 27.33994,4.95616 60.10366,11.15307 z m 68.6891,-7.18849 c 2.26,2.47979 -2.7111,10.90731 -6.3272,10.90731 -4.0672,0 -4.0672,-1.24075 -1.1292,-7.68512 2.4854,-4.70868 4.9709,-5.94773 7.4564,-3.22219 z m -716.94268,31.72694 c 0,17.84662 5.64906,50.06848 12.65282,71.13728 5.64905,16.85504 5.64905,17.35168 2.03441,37.17973 -4.29277,25.28256 -4.51987,77.58164 -0.22553,101.87263 4.29278,24.29099 8.8111,38.42047 21.01286,65.68448 5.64905,12.64128 9.71631,24.29099 9.26369,25.77919 -1.12918,3.46966 -18.30186,-12.14634 -29.59997,-27.01823 -9.94183,-12.88875 -21.9165,-35.9407 -28.46923,-54.52971 -4.74539,-12.88875 -4.74539,-12.88875 -0.22551,-12.88875 4.29277,0 4.51829,-1.73567 4.51829,-30.98453 v -30.98282 h -6.77823 c -5.64905,0 -7.00376,-1.23903 -9.2637,-9.4191 -1.35628,-4.95615 -3.16358,-22.06037 -3.6162,-37.67466 -0.90365,-23.05194 -0.22552,-32.47103 3.6162,-50.06847 4.7454,-22.06037 19.65814,-61.47072 23.04725,-61.47072 1.1292,0 2.03285,5.94773 2.03285,13.38368 z m 486.69874,70.88981 c 3.16353,21.0688 8.36006,49.82101 11.52357,63.70132 l 5.42199,25.28257 -4.2928,14.12779 c -2.48545,7.68341 -3.84159,14.87188 -3.16353,16.11092 0.67808,1.24075 -3.84027,8.18005 -10.16741,15.36854 l -11.29814,12.88874 -4.29269,-11.40224 c -14.68719,-37.17973 -13.10538,-98.40127 4.29269,-159.62452 2.48545,-9.17162 4.97099,-16.11094 5.42363,-15.616 0.451,0.24746 3.38907,18.09408 6.55269,39.16288 z m -645.99357,24.78592 3.1636,18.59071 -18.75448,74.35947 -18.75448,74.35946 -7.6819,-0.74411 c -9.26369,-0.7424 -76.59814,-34.94911 -76.59814,-38.9137 0,-9.66656 55.58529,-88.98389 100.54905,-143.01865 12.87836,-15.61601 13.55649,-16.11094 14.23462,-9.91403 0.22554,3.71711 2.03441,15.11935 3.84173,25.28085 z M 1049.792,468.59431 c 0,0.49664 -6.7798,15.61599 -15.14,32.96597 -14.9126,30.98454 -15.5908,31.9744 -22.5946,31.9744 -4.0672,0 -7.4563,-0.7424 -7.4563,-1.48651 0,-0.99157 7.6819,-16.3584 17.1727,-34.20501 15.5909,-29.49632 17.8493,-32.71851 22.5947,-31.72693 2.9364,0.49493 5.4235,1.73568 5.4235,2.47808 z m -760.32622,32.47104 c -0.67815,3.96629 -3.61466,15.36682 -6.32564,25.53002 l -5.198,18.09409 -17.39822,0.74409 c -16.72006,0.7424 -17.39819,0.49494 -17.39819,-4.95786 0,-25.28256 17.85081,-46.35136 39.09075,-46.59883 8.36003,0 8.58556,0.24747 7.2293,7.18849 z m 17.62529,7.43594 c -7.68347,34.20502 -8.3616,36.18817 -15.13985,36.93226 -5.42196,0.7424 -6.32563,0 -5.42196,-3.71882 12.20021,-48.3328 11.07101,-45.11061 16.72006,-42.38506 4.29279,2.23061 4.97092,3.9663 3.84175,9.17162 z m 33.44013,23.29942 c 3.61465,5.45279 6.55272,10.9056 6.55272,12.14464 0,0.99156 -9.03818,1.98314 -20.33628,1.98314 -11.07102,0 -20.33472,-0.74411 -20.33472,-1.4865 0,-1.73568 6.55272,-30.4879 7.90743,-35.19659 1.58179,-4.46294 17.62528,9.41739 26.21085,22.55531 z m -107.55282,9.66656 c 4.74539,11.40224 5.64904,16.85503 5.64904,39.65781 v 26.77076 h 7.45638 7.6819 v 19.08566 c 0.22552,10.65814 2.48545,29.49461 5.19644,42.1359 5.19799,24.29097 4.06725,32.96596 -4.0657,32.96596 -2.25993,0 -13.78356,-6.1952 -25.53271,-13.88031 -11.52364,-7.68343 -24.85458,-15.86348 -29.37445,-18.09409 l -8.1345,-3.96629 17.17268,-68.65749 c 9.49076,-37.92384 17.39818,-68.90666 17.8508,-68.90666 0.45106,0 3.1636,5.94774 6.10012,12.88875 z m 785.17922,7.43594 c 0,4.46123 0.678,14.12779 1.3562,21.0688 l 1.5819,13.13621 h -69.14192 -69.14012 l 5.64906,-18.09407 c 2.93643,-9.66657 5.87462,-19.33313 6.5527,-21.0688 0.67654,-2.23062 15.36384,-2.97472 62.13643,-2.97472 h 61.00575 z m -655.25728,26.76907 v 22.30783 H 304.153 245.40566 v -22.30783 -22.30784 h 58.74734 58.74732 z m 296.2221,26.76906 c 4.2928,40.15445 15.81648,79.06986 33.21467,110.05268 14.00901,25.53003 14.00901,25.7775 0.45099,29.0014 -6.32561,1.48649 -12.8783,2.72554 -14.46011,2.72554 -6.32725,0 -35.02196,-80.05973 -42.02727,-117.23946 -2.93651,-16.60757 -1.5818,-23.29941 11.07258,-50.07019 l 8.13299,-17.34997 0.45252,9.91403 c 0.4511,5.4528 1.80737,20.32469 3.16363,32.96597 z m 345.25318,5.70197 c 1.3547,9.91403 2.2584,18.09409 1.8073,18.58902 -0.4526,0.74411 -34.1183,0.74411 -74.56375,0.49664 l -73.88567,-0.74411 14.23467,-17.84662 14.00913,-17.84661 h 57.84363 l 57.84219,-0.24746 z m -660.90633,20.07722 c 19.43105,65.43531 69.59281,112.77825 140.31484,133.35041 44.96377,12.89044 93.31821,16.85503 149.12747,12.64127 114.33107,-8.67499 166.97838,-32.71679 233.18196,-106.08639 l 29.8255,-32.96597 h 42.93099 c 28.01661,0 43.15644,0.99157 43.15644,2.47979 0,7.18677 -29.59995,64.19625 -51.0655,98.1538 -16.49445,26.02667 -20.78726,29.49631 -59.87655,46.59883 -48.12731,21.0688 -117.72007,37.67636 -189.57283,45.11231 -46.77269,4.95616 -156.81098,3.46965 -195.44756,-2.47978 -50.61282,-8.17836 -89.02544,-17.84662 -127.8891,-32.71851 -31.63281,-12.14464 -45.18929,-19.08565 -82.24564,-42.38506 -39.99285,-25.28086 -63.26564,-37.92214 -84.7311,-46.59712 -20.56179,-8.18005 -39.54181,-9.17163 -48.12892,-2.97472 -6.77824,4.95616 -7.68189,2.47808 -2.71098,-8.18006 5.64905,-11.89717 18.30186,-19.82976 31.8599,-19.82976 15.36381,0 25.53271,4.21377 53.09828,22.06038 25.98376,16.85504 33.21461,18.34154 40.21838,8.67498 5.87459,-8.17834 5.87459,-10.41066 0.22709,-36.18815 -2.48547,-11.40224 -4.51987,-29.24714 -4.51987,-39.90528 v -19.08566 h 37.96001 38.18553 z m 15.81641,-3.47135 c 13.33096,37.92384 39.54024,73.86453 67.33289,91.71114 38.18553,24.78592 90.60567,38.1713 162.68396,41.64096 107.55292,5.20533 210.58743,-34.70166 271.36761,-105.34229 9.03813,-10.41067 16.94697,-17.59914 19.65796,-17.59914 2.48556,0 4.51835,0.99157 4.51835,2.47979 0,4.46122 -46.31995,53.78558 -64.39478,68.41001 -55.58528,44.86315 -122.91814,63.70134 -229.34028,63.70134 -43.38352,0 -66.2037,-2.72555 -100.54905,-12.14465 C 414.19128,736.78501 365.16026,690.18619 346.18025,620.78459 l -3.38911,-12.88875 h 5.42196 c 4.51986,0 6.10165,2.72555 11.07258,16.85334 z m 475.40055,-3.46966 c 9.71479,5.45281 11.52368,7.43595 9.48923,10.1632 -2.03281,2.72555 -1.35462,3.46966 3.61626,4.21377 3.38918,0.49493 7.22924,2.72555 8.58561,4.95615 2.71088,4.95787 -3.61473,13.38539 -22.82171,29.49632 -13.78214,11.89717 -15.36384,11.40224 -31.18022,-8.18005 -8.36005,-10.65813 -23.72544,-39.41034 -23.72544,-44.86314 0,-2.72555 10.3944,-3.71712 27.1145,-3.22219 13.1054,0.49664 19.65809,2.23062 28.92177,7.43594 z M 82.269089,618.3048 c 4.292782,4.71041 3.163605,11.40224 -1.807319,13.13792 -4.970924,1.73398 -11.298111,-2.23061 -11.298111,-7.18847 0,-3.71883 4.519879,-8.92245 7.909,-8.92245 1.354705,0 3.614639,1.23904 5.19643,2.973 z m 669.040811,58.49771 -14.00901,52.05163 -8.58561,2.47808 c -4.97088,1.23903 -8.81269,1.73567 -8.81269,0.74409 0,-0.74409 6.32725,-23.54857 14.00913,-50.56511 13.78346,-48.08533 14.23456,-49.32608 22.14362,-53.7873 4.2927,-2.47808 8.13451,-4.21376 8.5855,-3.71712 0.45263,0.24747 -5.64907,24.04182 -13.33094,52.79573 z m 28.46913,-37.67638 c 3.39071,7.68342 12.6544,21.56374 20.56192,30.73536 l 14.46165,16.85505 -16.26901,10.41066 c -18.98,12.64129 -50.16012,27.76064 -51.06539,25.03338 -0.22555,-0.99156 4.97088,-22.55529 11.9762,-48.08532 6.77825,-25.53002 12.42732,-46.84629 12.42732,-47.5904 0,-3.71712 2.25989,0.24747 7.90731,12.64127 z m -621.58992,22.80278 c 3.84017,1.24075 3.84017,1.48821 -1.13076,4.21376 -4.74383,2.97473 -8.36003,1.48822 -36.3782,-13.88032 -22.369124,-12.39211 -30.729158,-18.09408 -29.825498,-20.57216 0.905228,-2.72725 8.134506,0 32.085428,12.64128 16.94716,8.92245 32.76357,16.85504 35.24903,17.59744 z m 566.45892,25.28256 c -6.77824,24.53845 -13.33094,44.61568 -14.23456,44.61568 -2.71264,0 -4.74544,-17.10251 -3.16374,-29.24715 2.48544,-20.32469 8.13462,-34.70165 18.75292,-47.59039 5.64906,-6.69184 10.3945,-12.39382 10.84703,-12.39382 0.22566,0 -5.19797,20.07723 -12.20165,44.61568 z m -249.22397,-36.6831 c -0.67813,1.73398 -5.42353,17.59745 -10.84549,35.44406 -5.19644,17.59914 -10.39444,33.21344 -11.2981,34.20501 -0.90366,1.24075 -5.87457,-0.24746 -10.84549,-2.97301 -7.68191,-4.46294 -9.2637,-6.69354 -11.74915,-17.35168 -2.25995,-10.65813 -2.03441,-13.13621 1.80732,-21.56373 6.32717,-13.38539 16.269,-23.05195 27.79264,-27.01824 12.65281,-4.21376 16.26746,-4.46123 15.13827,-0.74241 z m 20.33472,0.74241 c 0.4526,0.49664 -4.29278,18.59071 -10.8455,40.40362 l -11.29654,39.90528 -6.77824,-2.47808 c -3.61619,-1.48821 -6.10166,-3.96629 -5.64905,-5.4528 0.45106,-1.73568 5.19645,-17.59915 10.39288,-35.19658 11.74916,-40.40362 12.20178,-41.64267 18.52896,-39.41206 2.71097,0.74411 5.19644,1.98315 5.64749,2.23062 z m 23.49986,6.94102 c 0.90367,1.48649 1.80733,5.70026 1.80733,9.17162 0,9.91403 12.42728,45.85471 21.23993,62.21312 4.51832,8.42751 7.6819,15.86346 7.00377,16.60756 -1.35627,1.73569 -32.08543,-3.22219 -52.87275,-8.42751 -11.07102,-2.47809 -16.04193,-4.95787 -15.3638,-6.94101 0.67813,-1.73398 6.1001,-20.07552 11.97469,-40.89685 l 10.84548,-37.92385 6.77824,1.48822 c 3.84174,0.98987 7.68345,2.97301 8.58711,4.7087 z m 37.73293,12.88873 c 33.44169,15.61601 31.8599,13.63286 21.01441,27.26571 -9.71631,12.14465 -18.52895,29.49632 -18.52895,36.68309 0,8.18005 -4.29278,3.9663 -12.20021,-11.40053 -8.36003,-16.11264 -19.43261,-49.82101 -19.43261,-58.496 0,-2.97472 1.13074,-5.20533 2.48546,-5.20533 1.35627,0 13.33095,4.95616 26.6619,11.15306 z m 56.48895,32.71851 c 9.48923,6.44438 25.08012,18.34154 35.02194,26.5216 l 17.62374,14.87189 -6.32559,2.23062 c -7.68351,2.72725 -92.4146,3.71883 -94.67453,1.23904 -0.90367,-0.7424 0,-7.68341 2.03441,-15.36683 2.71098,-9.66656 7.00376,-17.59915 15.13827,-27.26571 6.32719,-7.68341 12.20176,-13.88032 12.87834,-13.88032 0.67814,0 8.81265,5.20534 18.30342,11.64971 z m -424.11121,7.18849 c 20.78889,8.17834 44.2872,21.06878 84.05453,46.10217 47.90183,30.24043 79.98727,44.61568 132.18187,58.99264 60.78019,16.60587 115.00764,23.05194 191.15318,23.05194 118.39837,0 214.42756,-19.58229 303.90395,-61.96735 1.80889,-0.99158 -0.22556,3.22219 -4.7438,9.41909 -4.74544,6.44438 -13.10538,13.63286 -20.33627,17.59915 -18.07637,9.91403 -57.84374,23.54687 -92.41303,31.72694 -26.88896,6.44436 -28.69633,7.18677 -14.68709,5.94772 29.59995,-2.47808 65.07297,-12.14464 101.67815,-27.01652 2.71099,-1.24075 0.90362,2.2306 -5.42352,9.41909 -8.5855,9.66656 -13.10539,12.3921 -31.63286,19.08565 -11.97621,4.21375 -42.02715,11.40053 -66.88177,15.86175 -24.85462,4.71041 -42.93099,8.67669 -40.44556,8.67669 10.84561,0.49494 74.11287,-10.1632 94.67458,-15.86346 12.20022,-3.47136 22.59462,-5.70196 23.04571,-5.20533 0.67808,0.49493 -4.74378,5.94773 -11.52357,12.14464 -13.10395,11.6497 -24.40209,15.86347 -61.45847,22.80448 -10.84538,1.98315 -14.68555,3.22219 -9.94176,3.46965 4.29281,0 17.17275,-1.98315 28.2438,-4.46123 11.29803,-2.47979 20.56171,-4.21375 21.01434,-3.96628 1.35473,1.23903 -28.92187,21.0688 -51.51649,33.4626 -27.34159,15.11936 -65.97814,29.74378 -99.41979,37.67467 -34.7965,8.18005 -114.33116,8.18005 -149.12757,0 C 439.27138,931.11118 352.73296,884.2649 305.28217,837.17114 l -11.29654,-11.15478 14.68723,7.43596 c 16.49299,8.18005 47.90028,18.34154 63.26564,20.82133 6.32718,0.99157 1.58179,-1.23904 -12.4273,-5.94945 -34.11828,-11.40224 -74.78926,-34.205 -91.28381,-51.06005 -7.68347,-7.68341 -13.78356,-14.87188 -13.78356,-15.86346 0,-0.99157 11.52363,4.46122 25.53272,12.39382 31.63281,18.09407 61.2328,29.99125 100.09645,41.14602 36.82927,10.16149 49.25655,10.9056 17.84926,0.99158 -75.24187,-24.04353 -143.25291,-59.98422 -178.27483,-93.94176 -23.04727,-22.30784 -43.15646,-33.46261 -60.55466,-33.71008 -7.00533,0 -12.20176,-0.74411 -11.52363,-1.98315 2.25994,-4.21376 25.98376,-1.48651 41.80017,4.71041 z m 716.4916,78.32575 c -1.13083,1.73397 -6.10171,8.67498 -10.84549,15.61428 l -8.8127,12.39382 14.00912,-14.62442 c 15.59083,-16.60587 20.56182,-17.10251 9.26369,-0.99158 l -7.45632,10.65814 10.16742,-10.16149 c 11.07247,-11.64971 17.85071,-12.39382 11.75065,-1.48822 -3.84181,6.69354 -3.84181,6.69354 0.67654,2.23062 2.48545,-2.23062 5.42352,-4.21377 6.32715,-4.21377 0.90362,0 7.23088,5.70198 14.00912,12.64128 14.46022,15.36853 27.11451,40.89856 30.05105,61.22325 2.03445,14.37697 1.80725,19.82976 -2.25989,40.40192 l -2.25846,11.15477 -74.56375,12.88875 c -54.68001,9.41909 -75.9199,12.14464 -78.85809,10.41067 -5.8745,-3.47137 -14.68555,-20.57387 -18.75291,-36.43734 l -3.38918,-12.64128 20.56193,-16.60586 c 12.20022,-9.66656 35.47292,-32.96598 55.80918,-55.77046 32.53649,-36.68308 39.99292,-44.3682 34.57094,-36.68308 z"
     id="path4929"
     inkscape:connector-curvature="0"
     style="stroke-width:1.62925529" />
  <path
     d="m 902.53558,564.51921 v 11.15307 h 10.16895 10.16732 v -11.15307 -11.15477 h -10.16732 -10.16895 z"
     id="path4931"
     inkscape:connector-curvature="0"
     style="stroke-width:1.62925529" />
  <path
     d="m 943.20657,564.51921 v 11.15307 h 10.16885 10.16731 v -11.15307 -11.15477 h -10.16731 -10.16885 z"
     id="path4933"
     inkscape:connector-curvature="0"
     style="stroke-width:1.62925529" />
  <path
     d="m 983.87746,564.51921 v 11.15307 h 10.16896 10.16728 v -11.15307 -11.15477 h -10.16728 -10.16896 z"
     id="path4935"
     inkscape:connector-curvature="0"
     style="stroke-width:1.62925529" />
  <path
     d="m 895.75734,611.61297 v 11.15477 h 10.16742 10.16884 V 611.61297 600.4599 h -10.16884 -10.16742 z"
     id="path4937"
     inkscape:connector-curvature="0"
     style="stroke-width:1.62925529" />
  <path
     d="m 961.28285,611.61297 v 11.15477 h 10.16741 10.16885 V 611.61297 600.4599 h -10.16885 -10.16741 z"
     id="path4939"
     inkscape:connector-curvature="0"
     style="stroke-width:1.62925529" />
  <path
     d="m 886.7191,666.14267 c 0,8.67669 0,8.67669 10.16741,8.67669 10.16885,0 10.16885,0 10.16885,-8.67669 0,-8.67498 0,-8.67498 -10.16885,-8.67498 -10.16741,0 -10.16741,0 -10.16741,8.67498 z"
     id="path4941"
     inkscape:connector-curvature="0"
     style="stroke-width:1.62925529" />
  <path
     d="m 934.16834,666.14267 c 0,8.67669 0,8.67669 10.16895,8.67669 10.16731,0 10.16731,0 10.16731,-8.67669 0,-8.67498 0,-8.67498 -10.16731,-8.67498 -10.16895,0 -10.16895,0 -10.16895,8.67498 z"
     id="path4943"
     inkscape:connector-curvature="0"
     style="stroke-width:1.62925529" />
  <path
     d="m 412.22219,772.72571 v 16.11093 h 10.16736 10.16893 v -16.11093 -16.11094 h -10.16893 -10.16736 z"
     id="path4945"
     inkscape:connector-curvature="0"
     style="stroke-width:1.62925529" />
  <path
     d="m 755.66809,782.63973 v 16.11093 h 10.16731 10.16742 V 782.63973 766.5288 H 765.8354 755.66809 Z"
     id="path4947"
     inkscape:connector-curvature="0"
     style="stroke-width:1.62925529" />
  <path
     d="m 586.20425,804.94756 v 16.11265 h 10.16891 10.16736 v -16.11265 -16.11092 h -10.16736 -10.16891 z"
     id="path4949"
     inkscape:connector-curvature="0"
     style="stroke-width:1.62925529" />
  <path
     d="m 258.57642,576.91131 v 11.15477 h 10.16735 10.16736 v -11.15477 -11.15307 h -10.16736 -10.16735 z"
     id="path4951"
     inkscape:connector-curvature="0"
     style="stroke-width:1.62925529" />
  <path
     d="m 299.2474,576.91131 v 11.15477 h 10.16736 10.16736 V 576.91131 565.75824 H 309.41476 299.2474 Z"
     id="path4953"
     inkscape:connector-curvature="0"
     style="stroke-width:1.62925529" />
  <path
     d="m 339.91839,576.91131 v 11.15477 h 10.16736 10.16735 v -11.15477 -11.15307 h -10.16735 -10.16736 z"
     id="path4955"
     inkscape:connector-curvature="0"
     style="stroke-width:1.62925529" />
  <path
     d="m 771.46735,892.33402 c 1.50557,0.55125 4.51836,0.55125 6.2758,0 1.50711,-0.82603 0.25199,-1.37728 -3.26313,-1.37728 -3.51511,0 -4.77023,0.55125 -3.01267,1.37728 z"
     id="path4957"
     inkscape:connector-curvature="0"
     style="stroke-width:1.62925529" />
  <path
     d="m 1189.354,892.6634 c 0,-3.35701 0,216.6699 0,302.0032 H 1.1588708 V 874.11877 c 1.1711714,5.11487 19.3626042,11.42101 32.2409592,16.53759 23.412754,8.95317 25.170311,8.95317 47.998269,-7.67317 31.023121,-22.38293 50.339081,-21.74293 85.458991,2.55659 52.68146,36.45098 66.72943,37.09098 82.53339,5.11658 11.70716,-24.93951 38.0471,-24.93951 83.1182,0.64 19.31595,10.86976 39.21828,19.18293 45.07109,19.18293 5.26799,0 18.14633,-10.23146 28.09749,-22.38122 22.24314,-28.13611 35.11993,-26.21781 92.48299,10.23147 46.24228,30.05611 62.04624,31.97439 66.72942,7.03488 6.43917,-31.3344 11.70715,-36.45099 38.63191,-36.45099 16.39034,0.64 40.97428,8.31318 66.14454,21.10293 21.65688,11.51147 43.9,20.46293 47.99676,20.46293 4.68324,0 9.9512,-8.95146 12.29359,-19.82293 1.7559,-10.87147 9.36471,-23.66122 15.80386,-28.7761 15.8041,-10.87147 32.1928,-6.39488 83.70314,22.38123 51.51024,28.1361 66.14456,25.57951 66.14456,-12.14977 0,-11.51146 11.12075,-19.18463 28.09592,-19.18463 5.26795,0 26.92636,11.51146 48.58302,26.2178 46.82723,30.69611 59.70543,30.69611 63.80233,-0.63829 4.0967,-31.9744 23.4143,-32.61439 73.7534,-3.83658 37.4607,22.38123 79.5113,31.42144 79.5113,17.99338 z"
     id="path4985"
     inkscape:connector-curvature="0"
     style="fill:#0091c8;stroke-width:1.62925529" />
  <path
     d="m 12.065011,891.89199 c 1.171182,5.11659 13.463162,12.78976 26.339948,17.90464 23.414311,8.95318 25.170322,8.95318 47.998269,-7.67317 31.023122,-22.38123 50.339072,-21.74123 85.459012,2.55829 52.68143,36.44927 66.72941,37.08927 82.53338,5.11488 11.70716,-24.93952 38.0471,-24.93952 83.11819,0.64 19.31752,10.87146 39.21828,19.18463 45.07264,19.18463 5.26799,0 18.14478,-10.23146 28.09594,-22.38121 22.24315,-28.13782 35.11994,-26.21953 92.483,10.23146 46.24226,30.0544 62.04623,31.97269 66.7294,7.03317 6.43918,-31.33269 11.70717,-36.44928 38.63193,-36.44928 16.39032,0.64 40.97428,8.31318 66.14461,21.10293 21.65677,11.50976 43.8999,20.46293 47.99831,20.46293 4.6816,0 9.95109,-8.95317 12.29194,-19.82463 1.75602,-10.86976 9.36472,-23.65952 15.80397,-28.77611 15.80398,-10.86976 32.19433,-6.39487 83.70457,22.38294 51.5087,28.1361 66.1429,25.57781 66.1429,-12.15147 0,-11.50976 11.12086,-19.18293 28.09603,-19.18293 5.26796,0 26.92637,11.50976 48.58303,26.21782 46.82732,30.69439 59.70562,30.69439 63.80232,-0.64001 4.0984,-31.97269 23.4143,-32.61269 73.7535,-3.83659 37.4621,22.38123 72.5821,30.05611 72.5821,16.62635"
     id="path4987"
     inkscape:connector-curvature="0"
     style="fill:none;stroke:#ffffff;stroke-width:14.27553654;stroke-linecap:round;stroke-linejoin:round" />
  <path
     d="m 7.1609844,876.02853 c 1.1696136,5.11487 13.4631506,12.78804 26.3399366,17.90463 23.414323,8.95318 25.170323,8.95318 47.998271,-7.67317 31.023118,-22.38293 50.339078,-21.74293 85.459008,2.55658 52.68144,36.45099 66.72942,37.09099 82.53337,5.11659 11.70717,-24.93952 38.04711,-24.93952 83.1182,0.64001 19.31752,10.86976 39.21829,19.18293 45.07265,19.18293 5.26798,0 18.14477,-10.23147 28.09594,-22.38123 22.24314,-28.1361 35.11993,-26.21781 92.48299,10.23146 46.24227,30.05611 62.04623,31.9744 66.72942,7.03489 6.43916,-31.3344 11.70716,-36.45099 38.63191,-36.45099 16.39034,0.64 40.97428,8.31317 66.14469,21.10293 21.65666,11.51147 43.89979,20.46294 47.9982,20.46294 4.68159,0 9.94966,-8.95147 12.29193,-19.82294 1.75603,-10.87146 9.36484,-23.66122 15.80398,-28.7761 15.80398,-10.87146 32.19433,-6.39488 83.70303,22.38123 51.51024,28.13781 66.14455,25.57951 66.14455,-12.14976 0,-11.51147 11.12086,-19.18464 28.09592,-19.18464 5.26807,0 26.92637,11.51146 48.58314,26.21951 46.82718,30.6944 59.70548,30.6944 63.80228,-0.64 4.0983,-31.9744 23.4143,-32.6144 73.7534,-3.83659 37.4623,22.38123 72.5821,30.05441 72.5821,16.62636"
     id="path4989"
     inkscape:connector-curvature="0"
     style="fill:none;stroke:#000000;stroke-width:14.27553654;stroke-linecap:round;stroke-linejoin:round" />
  <path
     d="m 114.8289,980.20175 c -10.02737,7.04171 -8.91372,7.58443 8.91374,4.87594 15.04185,-2.16747 25.07078,0.54101 45.1271,13.00141 38.4406,24.3762 54.59763,26.0027 80.22522,8.6664 30.64205,-20.04306 42.89827,-23.83528 66.85385,-18.4183 18.38585,3.79221 20.05631,3.79221 12.81457,-3.24951 -15.59866,-15.70986 -46.24072,-15.70986 -73.54032,0 -31.19887,17.33451 -46.24071,17.87551 -81.33886,0.54101 -31.7557,-15.70986 -43.45508,-16.79359 -59.0553,-5.41695 z"
     id="path4991"
     inkscape:connector-curvature="0"
     style="fill:#ffffff;stroke-width:1.62925529" />
  <path
     d="m 689.77694,996.45265 c -21.17001,13.54405 -44.56872,24.37795 -52.36882,24.37795 -7.80011,0 -31.75571,-10.2929 -52.9272,-22.7515 -36.21177,-21.12855 -39.55424,-22.21058 -56.2681,-15.70989 -46.24072,18.41839 -76.32594,24.37629 -98.61108,18.41839 -25.6276,-6.50072 -27.85486,-2.16749 -5.57128,10.8338 21.72831,12.4604 40.67099,11.9177 83.01088,-2.7085 35.0997,-11.91753 35.65651,-11.91753 52.92718,-1.6247 69.63949,40.6289 89.6958,42.7947 125.90913,14.6261 41.78469,-32.50337 59.0553,-35.21186 118.66582,-16.2526 35.65645,11.3767 38.44226,11.3767 55.71286,3.2512 l 18.38432,-9.20905 h -22.842 c -12.81292,-0.54272 -40.1126,-6.5007 -60.16891,-14.08515 -20.61315,-7.58442 -44.0119,-13.5424 -52.36889,-13.5424 -8.91372,0 -31.75561,10.29291 -53.48391,24.37635 z"
     id="path4993"
     inkscape:connector-curvature="0"
     style="fill:#ffffff;stroke-width:1.62925529" />
  <path
     d="m 1017.3644,993.74416 c -6.6849,2.70849 -13.9283,7.04344 -16.1571,10.29284 -4.45615,7.5844 -33.42607,7.5844 -49.02633,0 -9.47059,-4.33315 -8.91384,-2.7084 3.34244,8.1254 18.94271,16.7936 32.87087,17.8774 57.38329,3.2512 17.2708,-10.8339 19.4995,-10.8339 38.999,-2.7085 32.8708,13.0014 38.999,9.2092 12.8146,-8.1254 -26.186,-17.33624 -29.5285,-17.87726 -47.3559,-10.83554 z"
     id="path4995"
     inkscape:connector-curvature="0"
     style="fill:#ffffff;stroke-width:1.62925529" />
  <path
     d="m 842.42888,1064.168 c -16.15701,11.9177 -35.65657,21.6696 -42.8982,21.6696 -6.68653,0 -27.85654,-7.5844 -45.68399,-16.7936 l -33.42772,-17.3347 -21.1699,11.9177 c -11.69944,6.5007 -27.85655,14.6262 -36.21342,17.8774 -8.91373,3.7905 -15.59861,8.6664 -15.59861,10.8339 0,8.1254 17.82745,4.3332 42.3399,-9.7519 27.29958,-15.7099 42.89831,-14.6262 69.64103,3.2512 36.77017,26.0028 48.46959,24.919 89.13905,-6.5007 25.62758,-20.0431 43.45505,-20.5858 86.91009,-2.1675 32.31412,13.0014 36.21331,13.5441 52.92717,6.5007 l 18.38432,-7.5844 -19.49957,-0.541 c -10.58407,-0.541 -35.65491,-8.1255 -54.59751,-16.7936 -19.49801,-9.2092 -41.22631,-16.2509 -47.9113,-16.2509 -6.68642,0 -26.18598,9.7502 -42.34134,21.6678 z"
     id="path4997"
     inkscape:connector-curvature="0"
     style="fill:#ffffff;stroke-width:1.62925529" />
  <path
     d="m 386.14666,1066.8765 c -26.18441,23.2943 -42.89826,23.837 -70.19785,2.7085 -25.06923,-19.5021 -41.78307,-20.0431 -75.21078,-2.7085 -18.94111,9.7519 -22.84195,13.5441 -15.59865,16.2526 5.01291,2.1658 16.71386,-0.5427 26.18442,-4.8759 24.51238,-12.4604 36.77014,-10.834 67.96902,10.2929 15.59866,10.2929 30.64049,18.9593 32.86933,18.9593 2.22883,0 14.48502,-7.5827 27.29959,-16.2508 38.99743,-27.6276 46.79754,-28.7113 84.68134,-13.5425 34.54133,14.6262 44.57025,13.5425 61.28411,-5.9596 7.24174,-8.6682 6.68491,-8.6682 -4.45766,-3.2495 -17.82747,9.2091 -30.64049,8.1254 -64.06819,-7.0435 -38.44217,-17.3346 -45.12709,-17.3346 -70.75468,5.417 z"
     id="path4999"
     inkscape:connector-curvature="0"
     style="fill:#ffffff;stroke-width:1.62925529" />
  <path
     d="m 81.959584,1102.6312 c -6.686476,3.2495 -15.043395,10.2929 -18.38586,16.2509 -6.684919,9.7519 -6.128098,10.2929 3.900822,5.417 13.926659,-7.5828 37.883814,-7.5828 42.339894,0 2.22883,3.2512 13.9282,13.0014 26.1844,21.6694 28.97161,20.0431 52.9272,20.5859 82.45407,1.6248 22.28512,-14.0851 37.32697,-15.1671 69.64103,-4.876 7.79856,2.7102 6.68492,-0.5409 -5.57128,-10.2911 -21.17149,-17.8773 -42.89826,-17.8773 -75.21232,0 -29.52688,16.2508 -39.55425,14.6261 -76.3244,-14.0851 -30.64206,-23.2943 -31.755686,-23.8371 -49.026356,-15.7099 z"
     id="path5001"
     inkscape:connector-curvature="0"
     style="fill:#ffffff;stroke-width:1.62925529" />
  <path
     d="m 480.3001,1127.0075 c -10.58575,7.5845 -23.39876,15.7098 -27.85641,18.42 -4.45609,2.7085 -6.68492,5.958 -5.01447,7.5827 1.67201,2.1675 15.04339,-2.7084 29.52843,-10.2929 14.48502,-7.5826 30.64204,-13.5423 35.65496,-13.5423 5.57129,0 21.72832,9.7519 37.32697,22.2105 30.64207,24.378 40.11263,24.9191 74.65551,1.6247 25.62604,-16.7935 31.19728,-16.2508 61.83941,3.2512 31.75562,20.5859 44.57018,20.5859 82.45406,-0.5427 33.98446,-18.4182 46.24063,-17.8755 80.2252,3.7922 11.69943,7.0435 25.07084,13.0014 29.52689,13.0014 12.81456,0 37.3269,-13.5424 50.14146,-27.0848 l 11.14269,-11.9193 -19.49955,11.3766 c -26.18446,15.1689 -42.34145,14.0851 -75.21079,-4.8759 -35.0997,-20.0431 -45.12714,-20.0431 -75.76917,0 -31.19887,20.0448 -47.35434,20.5858 -77.99635,0 -31.19889,-20.0431 -47.35591,-20.5841 -75.21077,0 -27.2996,20.0448 -33.98452,20.0448 -57.94166,1.0838 -22.84195,-18.4184 -41.22626,-28.1686 -51.25517,-28.1686 -3.89928,0.541 -16.15548,6.5007 -26.74124,14.0834 z"
     id="path5003"
     inkscape:connector-curvature="0"
     style="fill:#ffffff;stroke-width:1.62925529" />
</svg>
