<?xml version="1.0" encoding="UTF-8" standalone="no"?>
<!DOCTYPE svg PUBLIC "-//W3C//DTD SVG 1.1//EN" "http://www.w3.org/Graphics/SVG/1.1/DTD/svg11.dtd">
<svg version="1.1" xmlns="http://www.w3.org/2000/svg" xmlns:xlink="http://www.w3.org/1999/xlink" preserveAspectRatio="xMidYMid meet" viewBox="0 0 512 512" width="512" height="512"><defs><path d="M172.1 43.31L150.3 59.31L158.5 84.91L136.7 69.11L114.9 84.91L123.1 59.31L101.3 43.31L128.3 43.31L136.7 17.51L145.1 43.31L172.1 43.31ZM116.5 48.31L128.9 57.31L124.18 72.01L136.7 62.91L149.22 72.01L144.5 57.31L156.9 48.31L141.5 48.31L136.7 33.51L131.9 48.31L116.5 48.31Z" id="aufixDJkx"></path><path d="M0 0L512 0L512 512L0 512L0 0Z" id="a2hS5OOh0t"></path><path d="M103.28 120.56L69.29 152.93L87.42 171.06C96.81 161.6 102.03 156.35 103.07 155.3C133.59 186.28 157.32 210.37 186.79 240.28C194.95 248.74 209.16 237.23 200.06 227.47C168.92 197.12 147.34 175.22 114.89 143.4C116.18 142.11 122.59 135.66 134.13 124.05L103.28 120.56Z" id="axPei8lpk"></path><path d="M102.13 211.37C162.94 267.77 261.47 166.06 135.55 92.36C229.25 196.47 139.29 228.38 106.72 196.26C106.55 196.13 105.24 195.05 105.08 194.91C103.75 196.4 102.41 197.89 101.09 199.39C98.56 197.01 94.64 196.31 93.44 200.38C88.48 200.04 85.57 202.78 84.27 207.93C75.04 214.04 65.06 219.4 59.32 229C56.04 239.15 62.53 243.56 69.87 242.72C81.9 237.73 85.62 226.92 92.05 218.01C96.61 216.56 100.46 214.61 101.17 210.47" id="h1HnrdSe5R"></path></defs><g><g><g><use xlink:href="#aufixDJkx" opacity="1" fill="#ffd700" fill-opacity="1"></use><g><use xlink:href="#aufixDJkx" opacity="1" fill-opacity="0" stroke="#000000" stroke-width="1" stroke-opacity="0"></use></g></g><g><use xlink:href="#a2hS5OOh0t" opacity="1" fill="#cc0000" fill-opacity="1"></use></g><g><use xlink:href="#axPei8lpk" opacity="1" fill="#ffd700" fill-opacity="1"></use><g><use xlink:href="#axPei8lpk" opacity="1" fill-opacity="0" stroke="#000000" stroke-width="1" stroke-opacity="0"></use></g></g><g><use xlink:href="#h1HnrdSe5R" opacity="1" fill="#ffd700" fill-opacity="1"></use><g><use xlink:href="#h1HnrdSe5R" opacity="1" fill-opacity="0" stroke="#000000" stroke-width="1" stroke-opacity="0"></use></g></g></g></g></svg>